<svg xmlns="http://www.w3.org/2000/svg" width="40" height="40" viewBox="0 0 40 40">
  <path id="icon" d="M876.571,3442.282a5.714,5.714,0,1,1,5.714,5.715A5.72,5.72,0,0,1,876.571,3442.282Zm1.428,0a4.286,4.286,0,1,0,4.286-4.285A4.29,4.29,0,0,0,878,3442.282Zm-15.714,0A5.714,5.714,0,1,1,868,3448,5.72,5.72,0,0,1,862.286,3442.282Zm1.428,0A4.286,4.286,0,1,0,868,3438,4.29,4.29,0,0,0,863.714,3442.282Zm-15.714,0a5.714,5.714,0,1,1,5.714,5.715A5.72,5.72,0,0,1,848,3442.282Zm1.428,0a4.286,4.286,0,1,0,4.286-4.285A4.29,4.29,0,0,0,849.428,3442.282Zm27.143-14.287a5.714,5.714,0,1,1,5.714,5.716A5.719,5.719,0,0,1,876.571,3427.995Zm1.428,0a4.286,4.286,0,1,0,4.286-4.284A4.291,4.291,0,0,0,878,3427.995Zm-15.714,0a5.714,5.714,0,1,1,5.714,5.716A5.719,5.719,0,0,1,862.286,3427.995Zm1.428,0a4.286,4.286,0,1,0,4.286-4.284A4.291,4.291,0,0,0,863.714,3427.995Zm-15.714,0a5.714,5.714,0,1,1,5.714,5.716A5.719,5.719,0,0,1,848,3427.995Zm1.428,0a4.286,4.286,0,1,0,4.286-4.284A4.291,4.291,0,0,0,849.428,3427.995Zm27.143-14.283a5.714,5.714,0,1,1,5.714,5.713A5.72,5.72,0,0,1,876.571,3413.712Zm1.428,0a4.286,4.286,0,1,0,4.286-4.288A4.29,4.29,0,0,0,878,3413.712Zm-15.714,0a5.714,5.714,0,1,1,5.714,5.713A5.72,5.72,0,0,1,862.286,3413.712Zm1.428,0a4.286,4.286,0,1,0,4.286-4.288A4.29,4.29,0,0,0,863.714,3413.712Zm-15.714,0a5.714,5.714,0,1,1,5.714,5.713A5.72,5.72,0,0,1,848,3413.712Zm1.428,0a4.286,4.286,0,1,0,4.286-4.288A4.29,4.29,0,0,0,849.428,3413.712Z" transform="translate(-848 -3407.997)" fill="#e74d58"/>
</svg>
