<svg xmlns="http://www.w3.org/2000/svg" height="65px" width="155px" id="Objects" viewBox="0 0 150.1 62"><defs><style>.cls-1{fill:#f63a3a;}.cls-2{fill:#fff;}</style></defs><title>bindus logo</title><circle class="cls-1" cx="31.4" cy="31" r="31"></circle><path class="cls-2" d="M18.3,14.6h1A9.7,9.7,0,0,1,29,24.3V47.2a0,0,0,0,1,0,0H28a9.7,9.7,0,0,1-9.7-9.7V14.6A0,0,0,0,1,18.3,14.6Z"></path><path class="cls-2" d="M33.9,25.9h1a9.7,9.7,0,0,1,9.7,9.7V47.4a0,0,0,0,1,0,0h-1a9.7,9.7,0,0,1-9.7-9.7V25.9A0,0,0,0,1,33.9,25.9Z"></path><path class="cls-2" d="M77.4,25.7V8.6h6a7.8,7.8,0,0,1,4.7,1.2,4.1,4.1,0,0,1,1.6,3.5,4,4,0,0,1-.6,2.2,4.9,4.9,0,0,1-1.8,1.4,4.2,4.2,0,0,1,2.1,1.3,4.1,4.1,0,0,1,.7,2.5,4.4,4.4,0,0,1-1.6,3.7,7,7,0,0,1-4.4,1.3Zm3.5-9.9h2.6c1.8-.1,2.7-.8,2.7-2.2a1.8,1.8,0,0,0-.7-1.6,3,3,0,0,0-2.1-.5H80.9Zm0,2.5v4.6H84a2.9,2.9,0,0,0,1.9-.6,2.1,2.1,0,0,0,.7-1.7,2.1,2.1,0,0,0-2.4-2.3Z"></path><path class="cls-2" d="M92.5,9.7A1.7,1.7,0,0,1,93,8.5,1.6,1.6,0,0,1,94.4,8a1.7,1.7,0,0,1,1.4.5,1.7,1.7,0,0,1,.5,1.2,1.9,1.9,0,0,1-.5,1.3A2.2,2.2,0,0,1,93,11,1.9,1.9,0,0,1,92.5,9.7Zm3.6,16H92.7V13h3.4Z"></path><path class="cls-2" d="M102,13v1.5a4.3,4.3,0,0,1,3.7-1.7,3.8,3.8,0,0,1,3,1.2,6.1,6.1,0,0,1,1,3.5v8.2h-3.4V17.6a2.3,2.3,0,0,0-.5-1.6,2.2,2.2,0,0,0-1.6-.5,2.4,2.4,0,0,0-2.1,1.2v9H98.8V13Z"></path><path class="cls-2" d="M111.8,19.2a7.7,7.7,0,0,1,1.3-4.7,4.5,4.5,0,0,1,3.7-1.7,3.6,3.6,0,0,1,3,1.4V7.7h3.4v18h-3l-.2-1.4a3.8,3.8,0,0,1-3.3,1.6,4.4,4.4,0,0,1-3.5-1.7A8.2,8.2,0,0,1,111.8,19.2Zm3.4.3a4.9,4.9,0,0,0,.6,2.7,1.9,1.9,0,0,0,1.8,1,2.3,2.3,0,0,0,2.2-1.3V16.8a2.3,2.3,0,0,0-2.2-1.3C116,15.5,115.2,16.8,115.2,19.5Z"></path><path class="cls-2" d="M133.4,24.4a4.1,4.1,0,0,1-3.4,1.5,3.9,3.9,0,0,1-3.1-1.2,4.4,4.4,0,0,1-1.1-3.4V13h3.4v8.2c0,1.3.6,2,1.8,2a2.4,2.4,0,0,0,2.3-1.2V13h3.4V25.7h-3.2Z"></path><path class="cls-2" d="M143.2,23h6.2v2.7H138.8V23.6l6-7.9H139V13h10.2v2Z"></path><path class="cls-1" d="M78.5,35.8v1a3.1,3.1,0,0,1,2.6-1.2,2.6,2.6,0,0,1,2.6,1.5A3.8,3.8,0,0,1,84.9,36a4.7,4.7,0,0,1,1.7-.4c2,0,3,1.1,3.1,3.2v6H88.1V38.9a1.7,1.7,0,0,0-1.9-2,2.2,2.2,0,0,0-1.4.5,2.3,2.3,0,0,0-.7,1.4v6H82.6V38.9a1.8,1.8,0,0,0-1.9-2,2.2,2.2,0,0,0-2.1,1.3v6.6H77.1v-9Z"></path><path class="cls-1" d="M97.5,44.8a5.6,5.6,0,0,1-.2-1,3.3,3.3,0,0,1-2.6,1.1,3,3,0,0,1-2.1-.7,2.3,2.3,0,0,1-.9-1.9,2.7,2.7,0,0,1,1.1-2.2,5.1,5.1,0,0,1,3-.8h1.5v-.7a2.1,2.1,0,0,0-.5-1.3,2,2,0,0,0-1.4-.4,2.1,2.1,0,0,0-1.4.4,1.2,1.2,0,0,0-.6,1H91.9a2.1,2.1,0,0,1,.5-1.3,2.7,2.7,0,0,1,1.3-1,4.8,4.8,0,0,1,1.8-.4,3.6,3.6,0,0,1,2.4.8,2.6,2.6,0,0,1,.9,2.1v4.2a5.6,5.6,0,0,0,.3,2H97.5ZM95,43.6a2.2,2.2,0,0,0,1.3-.4,1.8,1.8,0,0,0,1-.9V40.4H96.1c-1.9,0-2.9.6-2.9,1.7a1.4,1.4,0,0,0,.5,1.1A1.8,1.8,0,0,0,95,43.6Z"></path><path class="cls-1" d="M100.8,40.2a5.4,5.4,0,0,1,1-3.3,3.3,3.3,0,0,1,2.6-1.3,3.2,3.2,0,0,1,2.6,1.2v-1h1.4v8.8a3.6,3.6,0,0,1-1,2.7,3.7,3.7,0,0,1-2.8,1,4.3,4.3,0,0,1-1.9-.4,4,4,0,0,1-1.4-1.1l.8-1a3,3,0,0,0,2.4,1.3,2.3,2.3,0,0,0,1.8-.7,2.4,2.4,0,0,0,.6-1.7v-.8a3.2,3.2,0,0,1-2.5,1,3.2,3.2,0,0,1-2.6-1.2A6.1,6.1,0,0,1,100.8,40.2Zm1.6.2a4.3,4.3,0,0,0,.6,2.4,1.9,1.9,0,0,0,1.8.8,2.3,2.3,0,0,0,2.1-1.3V38.2a2.4,2.4,0,0,0-2.1-1.3,2,2,0,0,0-1.8.9A4.8,4.8,0,0,0,102.4,40.4Z"></path><path class="cls-1" d="M116.3,44.8a2.2,2.2,0,0,1-.2-1,3.3,3.3,0,0,1-2.6,1.1,3.2,3.2,0,0,1-2.2-.7,2.6,2.6,0,0,1-.8-1.9,2.7,2.7,0,0,1,1.1-2.2,5.1,5.1,0,0,1,3-.8h1.5v-.7a2.1,2.1,0,0,0-.5-1.3,2.6,2.6,0,0,0-2.8,0,1.2,1.2,0,0,0-.6,1h-1.5a1.7,1.7,0,0,1,.5-1.3,2.9,2.9,0,0,1,1.2-1,5.8,5.8,0,0,1,1.8-.4,3.7,3.7,0,0,1,2.5.8,2.6,2.6,0,0,1,.9,2.1v4.2a5.6,5.6,0,0,0,.3,2h-1.6Zm-2.6-1.2a2.3,2.3,0,0,0,1.4-.4,2.2,2.2,0,0,0,1-.9V40.4h-1.2c-1.9,0-2.9.6-2.9,1.7a1.4,1.4,0,0,0,.5,1.1A1.6,1.6,0,0,0,113.7,43.6Z"></path><path class="cls-1" d="M121.4,43.5h5.3v1.3h-7.1V43.7l4.9-6.6h-4.9V35.8h6.8v1.1Z"></path><path class="cls-1" d="M128.4,33.4a.9.9,0,0,1,.3-.6.6.6,0,0,1,.6-.3.8.8,0,0,1,.7.3.9.9,0,0,1,.3.6.6.6,0,0,1-.3.6.8.8,0,0,1-.7.3,1.1,1.1,0,0,1-.9-.9Zm1.7,11.4h-1.5v-9h1.5Z"></path><path class="cls-1" d="M134,35.8v1.1a3.2,3.2,0,0,1,2.6-1.3c1.9,0,2.9,1.1,2.9,3.2v6h-1.5v-6a2,2,0,0,0-.5-1.4,1.7,1.7,0,0,0-1.3-.5,2.5,2.5,0,0,0-1.3.4,3.1,3.1,0,0,0-.9,1.1v6.4h-1.6v-9Z"></path><path class="cls-1" d="M145.7,44.9a3.7,3.7,0,0,1-3-1.1,4.5,4.5,0,0,1-1.2-3.3v-.2a6,6,0,0,1,.5-2.4,5,5,0,0,1,1.5-1.7,3.6,3.6,0,0,1,2-.6,3.4,3.4,0,0,1,2.7,1.2,5.4,5.4,0,0,1,1,3.3v.6h-6.1a3.3,3.3,0,0,0,.8,2.2,2.3,2.3,0,0,0,1.8.8,2.9,2.9,0,0,0,1.4-.3l1-.9.9.7A3.5,3.5,0,0,1,145.7,44.9Zm-.2-8a1.9,1.9,0,0,0-1.6.7,3.3,3.3,0,0,0-.8,1.9h4.5a2.9,2.9,0,0,0-.6-1.9A2,2,0,0,0,145.5,36.9Z"></path></svg>