<svg xmlns="http://www.w3.org/2000/svg" id="Capa_1" data-name="Capa 1" width="38" height="27" viewBox="0 0 38 27"><defs><style>.cls-1{fill:#fff;}</style></defs><title>cloud-computing</title><path class="cls-1" d="M23.5,1.1a9.1,9.1,0,0,1,9,9.1,8.8,8.8,0,0,1-.2,1.6v.8l.7.3a6.8,6.8,0,0,1-2.8,13H7.9a6.8,6.8,0,0,1-6.7-5.5v-.3h0c0-.4-.1-.7-.1-1A6.8,6.8,0,0,1,5,13l.5-.3v-.6a6.8,6.8,0,0,1,3-5.3,6.4,6.4,0,0,1,3.8-1.2,6.6,6.6,0,0,1,2.3.4l.7.2.4-.7a9.1,9.1,0,0,1,7.8-4.4m0-1A10,10,0,0,0,14.9,5a8.2,8.2,0,0,0-2.6-.4A7.7,7.7,0,0,0,7.9,6a7.8,7.8,0,0,0-3.4,6.1,7.7,7.7,0,0,0-4.5,7,7.7,7.7,0,0,0,.2,1.5h0a7.9,7.9,0,0,0,7.7,6.3H30.1A7.9,7.9,0,0,0,38,19.1,7.9,7.9,0,0,0,33.3,12a11,11,0,0,0,.2-1.8A10.1,10.1,0,0,0,23.5.1Z"></path></svg>