<svg xmlns="http://www.w3.org/2000/svg" id="Capa_1" data-name="Capa 1" width="34" height="31" viewBox="0 0 34 31"><defs><style>.cls-1{fill:#fff;}</style></defs><title>cloud-computing</title><path class="cls-1" d="M33.9,9.8V8.3a17.4,17.4,0,0,0-15.2,6.6,8.5,8.5,0,0,0-3.9-2.4A21.6,21.6,0,0,1,33.4,4.4L33.6,3a22.9,22.9,0,0,0-20.3,9.2A7.9,7.9,0,0,0,5.2,18a7.6,7.6,0,0,0-.3,2.1v.4A5.3,5.3,0,0,0,0,26.1a5.4,5.4,0,0,0,5.3,5H22.8a6.7,6.7,0,0,0,6.6-6.7,6.6,6.6,0,0,0-1.9-4.6l-.2-.2-1.1-.8.3.2a7.1,7.1,0,0,1,6.4-2.9l.2-1.5a8.7,8.7,0,0,0-7.8,3.6l.5.4a6.5,6.5,0,0,0-5.3-.4,5,5,0,0,0-.8-2A16,16,0,0,1,33.9,9.8ZM20.2,19.7h.2l1.1-.4A5.4,5.4,0,1,1,24,29.7H5.3a4.1,4.1,0,0,1-4.1-4.1,3.8,3.8,0,0,1,1.2-2.8h0a4.4,4.4,0,0,1,2.9-1.1h.3a.6.6,0,0,0,.6-.6v-1a6.7,6.7,0,0,1,13.3-1C19.5,19.5,19.8,19.7,20.2,19.7Z"></path></svg>