<svg xmlns="http://www.w3.org/2000/svg" width="226.87" height="72.964" viewBox="0 0 226.87 72.964">
  <path id="Binduz_magazine" data-name="Binduz magazine" d="M493.461,4751.794a1.192,1.192,0,0,0,.234-.571q0-.454-.82-.453a27.828,27.828,0,0,0-2.944.307,19.368,19.368,0,0,1-2.593.221,5.464,5.464,0,0,1-2.8-.689,2.876,2.876,0,0,1-1.084-1.084,2.944,2.944,0,0,1-.395-1.493,3.06,3.06,0,0,1,.476-1.664,6.371,6.371,0,0,1,1.59-1.588,4.584,4.584,0,0,1-1.612-1.722,4.794,4.794,0,0,1-.571-2.306,5.308,5.308,0,0,1,2.974-4.717,10.428,10.428,0,0,1,5.4-1.319q.7,0,1.466.073,1.039.089,1.509.088a1.763,1.763,0,0,0,1.684-1.026c.205-.41.426-.615.659-.615a.707.707,0,0,1,.484.184.577.577,0,0,1,.2.447,1.4,1.4,0,0,1-.586,1.033,4.689,4.689,0,0,1-1.611.842,6.364,6.364,0,0,1,2.11,1.625,4.8,4.8,0,0,1,1.128,3.149,4.851,4.851,0,0,1-.645,2.417,5.616,5.616,0,0,1-1.8,1.919,8.963,8.963,0,0,1-5.155,1.45,12.269,12.269,0,0,1-2.564-.25,8.5,8.5,0,0,1-2.138-.747q-.689.469-.689.952,0,.573.776.674a10.31,10.31,0,0,0,2.315.132l.088-.014h4.38l.219-.016a4.306,4.306,0,0,1,3.164.732,2.126,2.126,0,0,1,.219,3.019,2.946,2.946,0,0,1-2.373,1.04C493.978,4751.824,493.744,4751.815,493.461,4751.794Zm-3.8-15.747a2.115,2.115,0,0,0-.285,1.3v6.2a3.165,3.165,0,0,0,.175,1.376,1.4,1.4,0,0,0,1.216.426,1.319,1.319,0,0,0,1.135-.4,3.019,3.019,0,0,0,.285-1.589v-5.976a2.189,2.189,0,0,0-.285-1.333,2.031,2.031,0,0,0-2.242,0Zm82.3,13.287a8.556,8.556,0,0,1-2.8-6.2,8.506,8.506,0,0,1,.586-3.054,8.16,8.16,0,0,1,1.612-2.644,8.332,8.332,0,0,1,6.152-2.725,8.148,8.148,0,0,1,4.907,1.6,8.3,8.3,0,0,1,3.4,7.222H582.4l-4.395.014-2.007.029v4.541a5.117,5.117,0,0,0,.162,1.671q.308.672,1.45.674a6.822,6.822,0,0,0,3.362-.93,9.1,9.1,0,0,0,2.878-2.571,4.462,4.462,0,0,1,.571-.688.586.586,0,0,1,.382-.146.525.525,0,0,1,.41.182.677.677,0,0,1,.161.462,2.891,2.891,0,0,1-.981,1.655,9.916,9.916,0,0,1-3.2,2.168,9.281,9.281,0,0,1-3.728.834A8.105,8.105,0,0,1,571.958,4749.334Zm4.248-13.054a5.986,5.986,0,0,0-.205,2.062v4.268l1.788.058,1.963-.058v-4.268q-.03-1.374-.058-1.645a1.027,1.027,0,0,0-.205-.506,1.963,1.963,0,0,0-1.67-.569Q576.529,4735.624,576.206,4736.281Zm-75.663,13.874a5.193,5.193,0,0,1-2.211-4.336,4.665,4.665,0,0,1,1.789-3.809,7.854,7.854,0,0,1,5.163-1.714,9.821,9.821,0,0,1,2.23.227,11.188,11.188,0,0,1,2.215.828v-1.787q-.014-1.86-.058-2.285a1.7,1.7,0,0,0-.265-.762q-.528-.821-2.464-.82a5.8,5.8,0,0,0-4.622,1.875c-.44.509-.812.762-1.115.762a.828.828,0,0,1-.587-.235.724.724,0,0,1-.249-.542q0-.923,2.182-1.9a13.177,13.177,0,0,1,5.376-.937q5.42,0,7.647,1.641a3.323,3.323,0,0,1,1.259,1.611,11.485,11.485,0,0,1,.293,3.149v5.815a11.771,11.771,0,0,0,.1,2.425,5.624,5.624,0,0,0,.686,1.735q2.969-3.94,7.617-11.381l1.949-3.105.366-.587-1.553-.014q-3.222,0-5.3.175c-.293.03-.527.044-.7.044-.459,0-.688-.2-.688-.6a.643.643,0,0,1,.182-.536,1.156,1.156,0,0,1,.667-.138l.513.014,9.3.147h7.075l-8.314,12.671-1.215,1.933-.235.4h1.859q3.059,0,6.1-.279.41-.029.644-.029.732,0,.731.7t-.966.689l-.879-.016-7.661-.073H509.714v-1.539a11.6,11.6,0,0,1-2.674,1.392,7.819,7.819,0,0,1-2.614.468A6.3,6.3,0,0,1,500.543,4750.155Zm5.215-8a8.416,8.416,0,0,0-.147,2.124v3.5a9.63,9.63,0,0,0,.074,1.406q.147.675,1,.674a3.468,3.468,0,0,0,1.5-.4,5.952,5.952,0,0,0,1.516-1.062l.03-5.991a7.094,7.094,0,0,0-2.856-.923A1.072,1.072,0,0,0,505.758,4742.156Zm-41.017,8a5.191,5.191,0,0,1-2.212-4.336,4.665,4.665,0,0,1,1.789-3.809,7.858,7.858,0,0,1,5.164-1.714,9.817,9.817,0,0,1,2.229.227,11.188,11.188,0,0,1,2.215.828v-1.787q-.014-1.86-.058-2.285a1.713,1.713,0,0,0-.264-.762q-.529-.821-2.465-.82a5.8,5.8,0,0,0-4.622,1.875c-.44.509-.811.762-1.115.762a.83.83,0,0,1-.587-.235.724.724,0,0,1-.249-.542q0-.923,2.182-1.9a13.177,13.177,0,0,1,5.376-.937q5.42,0,7.647,1.641a3.333,3.333,0,0,1,1.261,1.611,11.545,11.545,0,0,1,.292,3.149v5.815a11.77,11.77,0,0,0,.1,2.425,5.62,5.62,0,0,0,.7,1.75h-8.2v-1.539a11.6,11.6,0,0,1-2.674,1.392,7.819,7.819,0,0,1-2.614.468A6.3,6.3,0,0,1,464.742,4750.155Zm5.214-8a8.441,8.441,0,0,0-.145,2.124v3.5a9.709,9.709,0,0,0,.073,1.406q.147.675,1,.674a3.464,3.464,0,0,0,1.5-.4,5.958,5.958,0,0,0,1.517-1.062l.029-5.991a7.094,7.094,0,0,0-2.856-.923A1.072,1.072,0,0,0,469.956,4742.156Zm90.451,8.95.05-4.073.038-2.988-.014-4.512q-.016-1.567-.037-1.867a1.39,1.39,0,0,0-.14-.534,1.017,1.017,0,0,0-1.01-.469,3.528,3.528,0,0,0-1.553.41,8.952,8.952,0,0,0-1.8,1.229l-.014.6-.03,4.117-.03,3.149.044,4.306.016.63H548.44l.044-5.742.044-3.793-.044-3.282-.044-3.178h7.5v2.036a14.592,14.592,0,0,1,3.355-1.823,9.146,9.146,0,0,1,3.192-.608,6.222,6.222,0,0,1,3.516.952,3.545,3.545,0,0,1,1.458,1.78,11.486,11.486,0,0,1,.373,3.464l-.03,6.782.044,3.413Zm-22.084,0,.074-5.39.044-4.761-.03-2.506-.044-2.783.016-.556h7.484v.424l-.029,2.285-.03,3.545-.044,5.39.058,3.033.03,1.318Zm-84.621,0,.06-4.628.073-4.659-.014-1.889c-.011-.694-.011-1.1,0-1.216a3.3,3.3,0,0,0-.249-1.6,1.02,1.02,0,0,0-.953-.439,3.716,3.716,0,0,0-1.6.424,9.19,9.19,0,0,0-1.882,1.29,13.845,13.845,0,0,1,.073,1.641l-.029,3.663-.03,4.115q0,1.818.074,3.3h-7.515l.036-3.194.052-6.884a36.478,36.478,0,0,0-.088-3.75q-.161-.631-1.054-.631a3.465,3.465,0,0,0-1.516.418,9.909,9.909,0,0,0-1.868,1.267l-.06,6.2.074,6.577h-7.514v-.585l.029-2.667.014-3.633.016-3.516-.058-5.6h7.5v2.05a13.109,13.109,0,0,1,3.274-1.837,9.279,9.279,0,0,1,3.259-.608,6,6,0,0,1,3.94,1.23,4.045,4.045,0,0,1,1.07,1.539,15.028,15.028,0,0,1,3.551-2.117,9.388,9.388,0,0,1,3.48-.652q3.354,0,4.672,2.154a4.365,4.365,0,0,1,.527,1.486,15.742,15.742,0,0,1,.147,2.5l-.058,3.867v.908l.088,4.877.014.6Zm84.681-19.1q0-1.993,3.691-2.021,3.867,0,3.867,2.021a1.686,1.686,0,0,1-1.018,1.53,6.112,6.112,0,0,1-2.863.55Q538.382,4734.085,538.383,4732.005Zm6.206-13.887a7.92,7.92,0,0,1-1.419-3.062,23,23,0,0,1-.4-4.877l.06-6.856.029-4.57-.147-9.639h15l-.175,14.708.03,5.565.029,3.751q0,3.37.41,4.042a2.074,2.074,0,0,0,1.875.762,6.675,6.675,0,0,0,2.916-.732,23.917,23.917,0,0,0,3.91-2.608l.03-3.838.058-10.458-.175-10.283v-.909h15l-.088,23.028.088,8.964h-15v-4.131a31.153,31.153,0,0,1-6.775,3.662,18.538,18.538,0,0,1-6.393,1.113Q547.34,4721.75,544.589,4718.118Zm-41.06-.469a16.934,16.934,0,0,1-5.362-12.862,15.822,15.822,0,0,1,5.186-12.275,14.968,14.968,0,0,1,10.342-4.189,13.025,13.025,0,0,1,4.936.967,16.489,16.489,0,0,1,4.614,2.9l-.117-11.074h15l-.058,14.326-.029,10.137.087,14.208v1.319h-14.97V4717.3a16.46,16.46,0,0,1-4.644,3.429,12.087,12.087,0,0,1-5.083,1.024A14.011,14.011,0,0,1,503.53,4717.649Zm10.855-26.382a7.8,7.8,0,0,0-.4,3.032l.03,1.289v19.688a14.864,14.864,0,0,0,.205,2.958,1.593,1.593,0,0,0,1.7,1.261,5.639,5.639,0,0,0,3.105-1.1,27.534,27.534,0,0,0,4.218-3.822v-19.981a23.268,23.268,0,0,0-4.115-3.105,6.827,6.827,0,0,0-3.238-1.026A1.519,1.519,0,0,0,514.384,4691.268Zm103.261,29.986-15.322-.147H583.309q5.944-7.882,15.26-22.793l3.895-6.211.732-1.172-3.1-.028q-6.443,0-10.6.352c-.587.059-1.054.087-1.406.087q-1.377,0-1.376-1.2a1.281,1.281,0,0,1,.366-1.07,2.314,2.314,0,0,1,1.332-.278l1.026.03,18.6.292h14.151l-16.629,25.343-2.43,3.866-.469.791h3.718q6.118,0,12.207-.556.821-.059,1.289-.06,1.463,0,1.463,1.407,0,1.377-1.933,1.376Zm-136.984-.147.1-8.145.075-5.976-.03-9.024q-.029-3.134-.073-3.735a2.848,2.848,0,0,0-.279-1.07,2.038,2.038,0,0,0-2.021-.937,7.107,7.107,0,0,0-3.105.821,18.007,18.007,0,0,0-3.6,2.461l-.03,1.2-.058,8.232-.058,6.3.088,8.614.029,1.259h-14.97l.087-11.484.088-7.588-.088-6.562-.087-6.357h15v4.072a29.311,29.311,0,0,1,6.708-3.648,18.347,18.347,0,0,1,6.387-1.215,12.438,12.438,0,0,1,7.031,1.9,7.069,7.069,0,0,1,2.915,3.56,22.878,22.878,0,0,1,.748,6.929l-.058,13.564.087,6.826Zm-44.166,0,.147-10.782.087-9.521-.058-5.01-.087-5.565.029-1.114h14.971v.85l-.06,4.57-.058,7.09-.087,10.782.117,6.064.058,2.637Zm-41.179,0,.03-1.377.058-5.684.087-11.191-.117-12.188-.058-9.55h15.7q5.889,0,8.1.19a21.515,21.515,0,0,1,4.557.923,17.073,17.073,0,0,1,4.658,2.314,12.765,12.765,0,0,1,3.369,3.339,11.3,11.3,0,0,1,1.875,6.357,10.764,10.764,0,0,1-1.553,5.713,9.328,9.328,0,0,1-4.219,3.75,10.9,10.9,0,0,1,3.15,3.326,7.625,7.625,0,0,1,1.04,3.882,9.009,9.009,0,0,1-2.607,6.21q-3.193,3.516-9.61,3.808-3.545.177-9.96.176Zm17.754-20.479.176,18.544,2.637.03a36.883,36.883,0,0,0,6.8-.483,10.163,10.163,0,0,0,4.043-1.655,7.437,7.437,0,0,0,3.34-6.211,5.844,5.844,0,0,0-1.157-3.5,10.54,10.54,0,0,0-3.472-2.886,11.533,11.533,0,0,1-2.345.264,7.883,7.883,0,0,1-3.735-.762,2.255,2.255,0,0,1-1.42-1.992c0-.45.155-.674.469-.674a2.462,2.462,0,0,1,.966.293,9.576,9.576,0,0,0,4.395,1.024,7.245,7.245,0,0,0,6.5-3.4,8.706,8.706,0,0,0,1.406-4.893,9.412,9.412,0,0,0-3.252-7.178,13.764,13.764,0,0,0-5.522-3.134,28.321,28.321,0,0,0-8.043-.967h-1.611Zm23.542-17.725q0-3.984,7.383-4.043,7.735,0,7.734,4.043a3.371,3.371,0,0,1-2.036,3.061,12.223,12.223,0,0,1-5.728,1.1Q436.611,4687.064,436.612,4682.9Z" transform="translate(-395.316 -4678.86)" fill="#fff"/>
</svg>
