<svg xmlns="http://www.w3.org/2000/svg" width="227.419" height="72.964" viewBox="0 0 227.419 72.964">
  <path id="Binduz_magazine" data-name="Binduz magazine" d="M338.461,4130.8a1.213,1.213,0,0,0,.234-.571q0-.454-.821-.454a27.845,27.845,0,0,0-2.944.307,19.19,19.19,0,0,1-2.593.22,5.479,5.479,0,0,1-2.8-.688,2.89,2.89,0,0,1-1.083-1.084,2.941,2.941,0,0,1-.4-1.494,3.044,3.044,0,0,1,.477-1.662,6.367,6.367,0,0,1,1.589-1.59,4.582,4.582,0,0,1-1.612-1.721,4.8,4.8,0,0,1-.571-2.307,5.31,5.31,0,0,1,2.974-4.718,10.44,10.44,0,0,1,5.405-1.317q.7,0,1.465.073,1.039.087,1.508.088a1.767,1.767,0,0,0,1.685-1.025q.308-.616.659-.616a.7.7,0,0,1,.483.184.574.574,0,0,1,.205.447,1.4,1.4,0,0,1-.586,1.031,4.662,4.662,0,0,1-1.612.843,6.369,6.369,0,0,1,2.11,1.627,4.793,4.793,0,0,1,1.128,3.149,4.841,4.841,0,0,1-.645,2.417,5.622,5.622,0,0,1-1.8,1.919,8.963,8.963,0,0,1-5.156,1.45,12.374,12.374,0,0,1-2.564-.249,8.528,8.528,0,0,1-2.139-.748q-.689.469-.688.953c0,.379.258.605.776.674a10.384,10.384,0,0,0,2.314.132l.088-.015h4.38l.22-.016a4.294,4.294,0,0,1,3.164.733,2.123,2.123,0,0,1,.22,3.018,2.948,2.948,0,0,1-2.373,1.04C338.978,4130.824,338.744,4130.814,338.461,4130.8Zm-3.8-15.748a2.114,2.114,0,0,0-.286,1.3v6.2a3.165,3.165,0,0,0,.176,1.378,1.4,1.4,0,0,0,1.216.424,1.318,1.318,0,0,0,1.135-.4,3.018,3.018,0,0,0,.285-1.589v-5.977a2.187,2.187,0,0,0-.285-1.333,2.032,2.032,0,0,0-2.241,0Zm82.3,13.286a8.551,8.551,0,0,1-2.8-6.2,8.488,8.488,0,0,1,.586-3.054,8.178,8.178,0,0,1,1.611-2.645,8.3,8.3,0,0,1,2.813-2.021,8.321,8.321,0,0,1,8.247.894,8.3,8.3,0,0,1,3.4,7.222H427.4l-4.395.015-2.006.03v4.541a5.144,5.144,0,0,0,.161,1.67q.308.674,1.45.674a6.824,6.824,0,0,0,3.362-.93,9.115,9.115,0,0,0,2.878-2.571,4.5,4.5,0,0,1,.571-.688.581.581,0,0,1,.382-.147.521.521,0,0,1,.409.184.672.672,0,0,1,.162.461,2.888,2.888,0,0,1-.982,1.655,9.894,9.894,0,0,1-3.2,2.168,9.277,9.277,0,0,1-3.728.834A8.1,8.1,0,0,1,416.959,4128.334Zm4.247-13.053a5.957,5.957,0,0,0-.2,2.061v4.269l1.786.059,1.964-.059v-4.269q-.03-1.373-.059-1.645a1.018,1.018,0,0,0-.205-.5,1.961,1.961,0,0,0-1.669-.57Q421.529,4114.623,421.206,4115.281Zm-75.663,13.873a5.192,5.192,0,0,1-2.211-4.335,4.667,4.667,0,0,1,1.789-3.81,7.862,7.862,0,0,1,5.163-1.712,9.813,9.813,0,0,1,2.229.227,11.027,11.027,0,0,1,2.215.827v-1.787q-.016-1.86-.059-2.285a1.68,1.68,0,0,0-.264-.762q-.527-.821-2.464-.82a5.793,5.793,0,0,0-4.622,1.875q-.661.762-1.116.762a.828.828,0,0,1-.587-.234.725.725,0,0,1-.249-.542q0-.922,2.182-1.9a13.172,13.172,0,0,1,5.376-.938q5.419,0,7.646,1.641a3.335,3.335,0,0,1,1.261,1.611,11.521,11.521,0,0,1,.292,3.149v5.816a11.758,11.758,0,0,0,.1,2.424,5.634,5.634,0,0,0,.687,1.734q2.969-3.938,7.618-11.38l1.947-3.106.366-.586-1.552-.014q-3.222,0-5.3.175c-.293.029-.528.044-.7.044q-.689,0-.688-.6a.637.637,0,0,1,.184-.534,1.147,1.147,0,0,1,.666-.14l.513.015,9.3.147h7.075l-8.314,12.67-1.215,1.934-.234.4h1.859q3.06,0,6.1-.279.411-.029.644-.029.732,0,.732.7t-.966.688l-.879-.014-7.661-.074H354.714v-1.538a11.616,11.616,0,0,1-2.674,1.391,7.79,7.79,0,0,1-2.615.469A6.3,6.3,0,0,1,345.544,4129.154Zm5.215-8a8.449,8.449,0,0,0-.146,2.124v3.5a9.648,9.648,0,0,0,.074,1.407q.146.673,1,.673a3.479,3.479,0,0,0,1.5-.4,5.959,5.959,0,0,0,1.516-1.062l.03-5.992a7.107,7.107,0,0,0-2.857-.922A1.071,1.071,0,0,0,350.758,4121.156Zm-41.017,8a5.193,5.193,0,0,1-2.212-4.335,4.667,4.667,0,0,1,1.79-3.81,7.862,7.862,0,0,1,5.163-1.712,9.82,9.82,0,0,1,2.229.227,11.026,11.026,0,0,1,2.215.827v-1.787q-.016-1.86-.059-2.285a1.68,1.68,0,0,0-.264-.762q-.529-.821-2.464-.82a5.793,5.793,0,0,0-4.622,1.875q-.661.762-1.115.762a.828.828,0,0,1-.587-.234.726.726,0,0,1-.25-.542q0-.922,2.183-1.9a13.171,13.171,0,0,1,5.376-.938q5.419,0,7.646,1.641a3.335,3.335,0,0,1,1.261,1.611,11.523,11.523,0,0,1,.292,3.149v5.816a11.755,11.755,0,0,0,.1,2.424,5.654,5.654,0,0,0,.7,1.75h-8.2v-1.538a11.589,11.589,0,0,1-2.673,1.391,7.79,7.79,0,0,1-2.615.469A6.3,6.3,0,0,1,309.741,4129.154Zm5.215-8a8.447,8.447,0,0,0-.146,2.124v3.5a9.643,9.643,0,0,0,.074,1.407q.146.673,1,.673a3.48,3.48,0,0,0,1.5-.4,5.977,5.977,0,0,0,1.516-1.062l.03-5.992a7.107,7.107,0,0,0-2.857-.922A1.071,1.071,0,0,0,314.956,4121.156Zm90.451,8.95.051-4.072.037-2.988-.014-4.512q-.014-1.567-.036-1.868a1.41,1.41,0,0,0-.139-.534,1.018,1.018,0,0,0-1.011-.47,3.542,3.542,0,0,0-1.553.411,9.01,9.01,0,0,0-1.8,1.23l-.014.6-.03,4.117-.029,3.149.045,4.307.015.629h-7.486l.045-5.742.044-3.793-.044-3.281-.045-3.178h7.5v2.036a14.611,14.611,0,0,1,3.355-1.823,9.155,9.155,0,0,1,3.193-.608,6.213,6.213,0,0,1,3.515.953,3.533,3.533,0,0,1,1.458,1.779,11.461,11.461,0,0,1,.373,3.465l-.029,6.782.044,3.413Zm-22.083,0,.073-5.39.045-4.761-.029-2.506-.045-2.782.014-.557h7.486v.424l-.03,2.286-.029,3.544-.044,5.391.058,3.032.03,1.318Zm-84.622,0,.059-4.629.074-4.658-.016-1.89q-.014-1.039,0-1.215a3.279,3.279,0,0,0-.249-1.6,1.015,1.015,0,0,0-.952-.439,3.7,3.7,0,0,0-1.6.424,9.174,9.174,0,0,0-1.883,1.29,13.837,13.837,0,0,1,.074,1.64l-.03,3.663-.029,4.116q0,1.816.074,3.3h-7.515l.035-3.193.053-6.885a36.721,36.721,0,0,0-.088-3.75q-.162-.63-1.054-.63a3.484,3.484,0,0,0-1.517.418,10,10,0,0,0-1.867,1.267l-.059,6.2.074,6.577h-7.515v-.586l.03-2.665.015-3.634.015-3.516-.059-5.595h7.5v2.05a13.117,13.117,0,0,1,3.274-1.838,9.288,9.288,0,0,1,3.259-.608,6,6,0,0,1,3.941,1.23,4.042,4.042,0,0,1,1.069,1.539,15.049,15.049,0,0,1,3.553-2.117,9.366,9.366,0,0,1,3.478-.652q3.354,0,4.673,2.153a4.39,4.39,0,0,1,.528,1.487,15.8,15.8,0,0,1,.146,2.5l-.059,3.867v.908l.088,4.878.015.6Zm84.68-19.1q0-1.992,3.692-2.022,3.867,0,3.867,2.022a1.687,1.687,0,0,1-1.018,1.531,6.118,6.118,0,0,1-2.863.549Q383.382,4113.085,383.382,4111Zm41.207-13.887a7.942,7.942,0,0,1-1.419-3.062,23.028,23.028,0,0,1-.395-4.879l.058-6.855.03-4.571-.147-9.638h15l-.175,14.707.029,5.566.029,3.751q0,3.37.411,4.043a2.075,2.075,0,0,0,1.875.762,6.66,6.66,0,0,0,2.914-.733,23.882,23.882,0,0,0,3.911-2.607l.029-3.838.059-10.459-.176-10.283v-.908h15l-.087,23.027.087,8.965h-15v-4.131a31.074,31.074,0,0,1-6.774,3.662,18.545,18.545,0,0,1-6.393,1.113Q427.339,4100.75,424.589,4097.118Zm-41.06-.469a16.936,16.936,0,0,1-5.361-12.861,15.821,15.821,0,0,1,5.186-12.275,14.967,14.967,0,0,1,10.341-4.189,13.032,13.032,0,0,1,4.937.967,16.518,16.518,0,0,1,4.614,2.9l-.117-11.074h15l-.058,14.326-.03,10.137.088,14.209v1.319H403.158v-3.81a16.455,16.455,0,0,1-4.643,3.429,12.094,12.094,0,0,1-5.083,1.025A14.011,14.011,0,0,1,383.529,4096.649Zm10.854-26.382a7.806,7.806,0,0,0-.395,3.032l.029,1.289v19.688a14.907,14.907,0,0,0,.205,2.959,1.593,1.593,0,0,0,1.7,1.259,5.646,5.646,0,0,0,3.106-1.1,27.558,27.558,0,0,0,4.218-3.824v-19.98a23.292,23.292,0,0,0-4.116-3.1,6.832,6.832,0,0,0-3.238-1.025A1.521,1.521,0,0,0,394.384,4070.268Zm103.261,29.985-15.322-.146H463.309q5.945-7.883,15.259-22.794l3.895-6.211.733-1.171-3.1-.029q-6.443,0-10.6.351-.879.087-1.406.088-1.376,0-1.377-1.2a1.281,1.281,0,0,1,.366-1.069,2.311,2.311,0,0,1,1.333-.279l1.025.029,18.6.293h14.151l-16.629,25.342-2.431,3.867-.468.791h3.718q6.118,0,12.207-.557.821-.059,1.289-.059,1.463,0,1.464,1.407,0,1.376-1.933,1.377Zm-136.982-.146.1-8.146.075-5.977-.029-9.023q-.03-3.133-.073-3.735a2.835,2.835,0,0,0-.279-1.069,2.035,2.035,0,0,0-2.022-.938,7.089,7.089,0,0,0-3.1.821,17.971,17.971,0,0,0-3.6,2.461l-.03,1.2-.058,8.232-.059,6.3.088,8.613.029,1.261h-14.97l.088-11.485.087-7.589-.087-6.562-.088-6.357h15v4.072a29.264,29.264,0,0,1,6.708-3.647,18.326,18.326,0,0,1,6.387-1.216,12.435,12.435,0,0,1,7.031,1.9,7.071,7.071,0,0,1,2.915,3.559,22.92,22.92,0,0,1,.747,6.929l-.059,13.564.088,6.827Zm-44.167,0,.146-10.782.088-9.521-.059-5.01-.088-5.566.03-1.114h14.97v.849l-.058,4.571-.059,7.09-.087,10.781.117,6.065.058,2.637Zm-41.179,0,.029-1.378.059-5.683.087-11.191-.117-12.188-.058-9.55h15.7q5.889,0,8.1.191a21.408,21.408,0,0,1,4.555.923,17.079,17.079,0,0,1,4.659,2.314,12.762,12.762,0,0,1,3.369,3.34,11.3,11.3,0,0,1,1.874,6.357,10.76,10.76,0,0,1-1.553,5.713,9.333,9.333,0,0,1-4.218,3.75,10.929,10.929,0,0,1,3.15,3.326,7.644,7.644,0,0,1,1.04,3.881,9.008,9.008,0,0,1-2.607,6.211q-3.194,3.516-9.609,3.809-3.546.176-9.962.176Zm17.753-20.479.176,18.544,2.636.03a36.825,36.825,0,0,0,6.8-.484,10.15,10.15,0,0,0,4.043-1.654,7.44,7.44,0,0,0,3.34-6.212,5.836,5.836,0,0,0-1.157-3.5,10.511,10.511,0,0,0-3.472-2.886,11.45,11.45,0,0,1-2.344.263,7.9,7.9,0,0,1-3.735-.762,2.258,2.258,0,0,1-1.421-1.991q0-.673.47-.674a2.464,2.464,0,0,1,.966.292,9.566,9.566,0,0,0,4.395,1.025,7.246,7.246,0,0,0,6.5-3.4,8.71,8.71,0,0,0,1.406-4.893,9.4,9.4,0,0,0-3.252-7.177,13.746,13.746,0,0,0-5.523-3.135,28.316,28.316,0,0,0-8.042-.967h-1.611Zm23.542-17.725q0-3.984,7.382-4.043,7.735,0,7.735,4.043a3.373,3.373,0,0,1-2.036,3.062,12.222,12.222,0,0,1-5.728,1.1Q316.612,4066.064,316.612,4061.9Z" transform="translate(-274.767 -4057.86)" fill="#fff"/>
</svg>
