<svg xmlns="http://www.w3.org/2000/svg" width="227.418" height="72.964" viewBox="0 0 227.418 72.964">
  <g id="Group_3" data-name="Group 3" transform="translate(-274.767 -4057.861)">
    <g id="Group_2" data-name="Group 2">
      <path id="Op_component_1" data-name="Op component 1" d="M312.026,4078.954a10.765,10.765,0,0,0,1.553-5.713,11.294,11.294,0,0,0-1.875-6.357,12.755,12.755,0,0,0-3.369-3.34,17.046,17.046,0,0,0-4.658-2.314,21.491,21.491,0,0,0-4.556-.923q-2.212-.19-8.1-.19h-15.7l.059,9.551.117,12.188-.088,11.192-.059,5.684-.029,1.377h14.5q6.416,0,9.961-.176,6.416-.292,9.609-3.809a9.012,9.012,0,0,0,2.607-6.211,7.638,7.638,0,0,0-1.04-3.882,10.923,10.923,0,0,0-3.149-3.325A9.34,9.34,0,0,0,312.026,4078.954Zm-3.12,7.4a5.837,5.837,0,0,1,1.157,3.5,7.438,7.438,0,0,1-3.34,6.211,10.155,10.155,0,0,1-4.043,1.655,36.842,36.842,0,0,1-6.8.483l-2.637-.029-.176-18.545.176-17.578h1.611a28.331,28.331,0,0,1,8.042.967,13.755,13.755,0,0,1,5.522,3.135,9.409,9.409,0,0,1,3.252,7.178,8.7,8.7,0,0,1-1.406,4.893,7.245,7.245,0,0,1-6.5,3.4,9.565,9.565,0,0,1-4.395-1.025,2.467,2.467,0,0,0-.967-.293q-.469,0-.469.674a2.258,2.258,0,0,0,1.421,1.992,7.9,7.9,0,0,0,3.735.762,11.488,11.488,0,0,0,2.344-.264A10.512,10.512,0,0,1,308.905,4086.352Z" fill="#e74d58"/>
      <path id="Op_component_2" data-name="Op component 2" d="M316.612,4061.9q0,4.161,7.354,4.16a12.223,12.223,0,0,0,5.728-1.1,3.372,3.372,0,0,0,2.036-3.062q0-4.043-7.734-4.042-7.383.059-7.383,4.042Zm0,6.211-.029,1.113.088,5.567.059,5.01-.088,9.521-.146,10.781h15.059l-.059-2.637-.117-6.064.088-10.781.059-7.09.059-4.571v-.849Z" fill="#e74d58"/>
      <path id="Op_component_3" data-name="Op component 3" d="M336.726,4068.114l.088,6.357.088,6.563-.088,7.588-.088,11.485H351.7l-.029-1.26-.088-8.613.059-6.3.059-8.233.029-1.2a17.985,17.985,0,0,1,3.6-2.461,7.1,7.1,0,0,1,3.105-.82,2.037,2.037,0,0,1,2.021.938,2.837,2.837,0,0,1,.278,1.069q.044.6.073,3.736l.029,9.023-.076,5.977-.1,8.145h14.883l-.088-6.826.059-13.564a22.909,22.909,0,0,0-.747-6.929,7.078,7.078,0,0,0-2.915-3.56,12.443,12.443,0,0,0-7.031-1.9,18.328,18.328,0,0,0-6.387,1.216,29.269,29.269,0,0,0-6.709,3.647v-4.072Z" fill="#e74d58"/>
      <path id="Op_component_4" data-name="Op component 4" d="M403.129,4060.116l.117,11.074a16.516,16.516,0,0,0-4.614-2.9,13.032,13.032,0,0,0-4.936-.967,14.969,14.969,0,0,0-10.342,4.189,15.822,15.822,0,0,0-5.186,12.275,16.934,16.934,0,0,0,5.361,12.861,14.01,14.01,0,0,0,9.9,4.1,12.1,12.1,0,0,0,5.083-1.025,16.46,16.46,0,0,0,4.643-3.428v3.809h14.971v-1.318l-.088-14.209.029-10.137.059-14.326Zm.117,33.457a27.574,27.574,0,0,1-4.219,3.823,5.645,5.645,0,0,1-3.105,1.1,1.594,1.594,0,0,1-1.7-1.26,14.862,14.862,0,0,1-.205-2.959v-19.688l-.029-1.289a7.8,7.8,0,0,1,.4-3.032,1.52,1.52,0,0,1,1.509-.806,6.824,6.824,0,0,1,3.237,1.026,23.269,23.269,0,0,1,4.116,3.105Z" fill="#e74d58"/>
      <path id="Op_component_5" data-name="Op component 5" d="M446.622,4068.114v.908l.176,10.283-.059,10.459-.029,3.838a23.832,23.832,0,0,1-3.911,2.607,6.663,6.663,0,0,1-2.915.732,2.075,2.075,0,0,1-1.875-.762q-.411-.674-.41-4.043l-.029-3.75-.029-5.566.176-14.707h-15l.146,9.638-.029,4.571-.059,6.855a23,23,0,0,0,.4,4.878,7.942,7.942,0,0,0,1.419,3.062q2.751,3.633,8.866,3.633a18.545,18.545,0,0,0,6.394-1.113,31.132,31.132,0,0,0,6.774-3.662v4.131h15l-.088-8.965.088-23.027Z" fill="#e74d58"/>
      <path id="Op_component_6" data-name="Op component 6" d="M488.035,4068.114l-18.6-.293-1.025-.029a2.312,2.312,0,0,0-1.333.278,1.28,1.28,0,0,0-.366,1.069q0,1.2,1.376,1.2.527,0,1.406-.088,4.158-.352,10.6-.352l3.1.03-.733,1.172-3.9,6.211q-9.314,14.913-15.26,22.793h19.014l15.322.146,1.758.029q1.934,0,1.934-1.377,0-1.406-1.464-1.406-.468,0-1.288.059-6.089.557-12.208.557h-3.718l.468-.791,2.43-3.867,16.629-25.342Z" fill="#e74d58"/>
    </g>
    <g id="Group_1" data-name="Group 1">
      <path id="Op_component_7" data-name="Op component 7" d="M292.741,4114.945a6,6,0,0,0-3.94-1.231,9.29,9.29,0,0,0-3.259.608,13.112,13.112,0,0,0-3.274,1.838v-2.051h-7.5l.059,5.6-.015,3.516-.015,3.633-.029,2.666v.585h7.515l-.073-6.577.059-6.2a9.94,9.94,0,0,1,1.868-1.267,3.474,3.474,0,0,1,1.516-.417q.893,0,1.055.63a36.947,36.947,0,0,1,.088,3.75l-.053,6.885-.035,3.193h7.515q-.073-1.479-.073-3.3l.029-4.116.029-3.662a13.84,13.84,0,0,0-.073-1.641,9.141,9.141,0,0,1,1.882-1.289,3.7,3.7,0,0,1,1.6-.425,1.018,1.018,0,0,1,.952.439,3.3,3.3,0,0,1,.249,1.6q-.015.176,0,1.216l.015,1.89-.073,4.658-.059,4.628h7.529l-.015-.6-.088-4.878v-.908l.059-3.867a15.774,15.774,0,0,0-.146-2.5,4.374,4.374,0,0,0-.527-1.487q-1.318-2.153-4.673-2.154a9.371,9.371,0,0,0-3.479.652,15.071,15.071,0,0,0-3.552,2.117,4.045,4.045,0,0,0-1.069-1.538Z" fill="#222"/>
      <path id="Op_component_8" data-name="Op component 8" d="M316.711,4119.523a9.82,9.82,0,0,0-2.229-.227,7.858,7.858,0,0,0-5.163,1.713,4.666,4.666,0,0,0-1.789,3.809,5.191,5.191,0,0,0,2.212,4.336,6.3,6.3,0,0,0,3.882,1.274,7.81,7.81,0,0,0,2.615-.469,11.6,11.6,0,0,0,2.673-1.392v1.538h8.2a5.635,5.635,0,0,1-.7-1.75,11.783,11.783,0,0,1-.1-2.424v-5.815a11.5,11.5,0,0,0-.293-3.149,3.339,3.339,0,0,0-1.26-1.611q-2.227-1.641-7.646-1.641a13.173,13.173,0,0,0-5.376.938q-2.183.981-2.183,1.9a.724.724,0,0,0,.249.542.829.829,0,0,0,.587.234q.455,0,1.115-.762a5.793,5.793,0,0,1,4.621-1.875q1.936,0,2.465.82a1.691,1.691,0,0,1,.264.762q.044.425.059,2.285v1.787A11.033,11.033,0,0,0,316.711,4119.523Zm2.186,7.874a5.952,5.952,0,0,1-1.516,1.062,3.482,3.482,0,0,1-1.5.4q-.85,0-1-.674a9.744,9.744,0,0,1-.073-1.406v-3.5a8.417,8.417,0,0,1,.147-2.124,1.07,1.07,0,0,1,1.113-.674,7.1,7.1,0,0,1,2.856.923Z" fill="#222"/>
      <path id="Op_component_9" data-name="Op component 9" d="M341.742,4113.9a1.4,1.4,0,0,0,.586-1.032.576.576,0,0,0-.205-.447.7.7,0,0,0-.483-.183q-.352,0-.659.615a1.766,1.766,0,0,1-1.685,1.025q-.469,0-1.509-.088-.762-.073-1.465-.074a10.437,10.437,0,0,0-5.405,1.318,5.31,5.31,0,0,0-2.974,4.717,4.791,4.791,0,0,0,.571,2.307,4.579,4.579,0,0,0,1.611,1.722,6.383,6.383,0,0,0-1.589,1.589,3.052,3.052,0,0,0-.476,1.663,2.945,2.945,0,0,0,.4,1.494,2.885,2.885,0,0,0,1.084,1.084,5.477,5.477,0,0,0,2.8.688,19.28,19.28,0,0,0,2.593-.22,28.012,28.012,0,0,1,2.944-.307q.82,0,.82.454a1.2,1.2,0,0,1-.234.571q.425.029.7.029a2.946,2.946,0,0,0,2.373-1.04,2.124,2.124,0,0,0-.22-3.018,4.292,4.292,0,0,0-3.164-.732l-.22.015h-4.38l-.088.015a10.327,10.327,0,0,1-2.314-.132q-.777-.1-.776-.674,0-.483.688-.952a8.509,8.509,0,0,0,2.139.747,12.34,12.34,0,0,0,2.564.249,8.965,8.965,0,0,0,5.156-1.451,5.621,5.621,0,0,0,1.8-1.918,4.847,4.847,0,0,0,.645-2.417,4.794,4.794,0,0,0-1.128-3.149,6.363,6.363,0,0,0-2.109-1.626A4.688,4.688,0,0,0,341.742,4113.9Zm-7.083,1.15a2.032,2.032,0,0,1,2.241,0,2.18,2.18,0,0,1,.286,1.333v5.977a3.008,3.008,0,0,1-.286,1.589,1.317,1.317,0,0,1-1.135.4,1.4,1.4,0,0,1-1.216-.425,3.161,3.161,0,0,1-.176-1.377v-6.2A2.116,2.116,0,0,1,334.659,4115.048Z" fill="#222"/>
      <path id="Op_component_10" data-name="Op component 10" d="M352.514,4119.523a9.82,9.82,0,0,0-2.229-.227,7.858,7.858,0,0,0-5.163,1.713,4.666,4.666,0,0,0-1.789,3.809,5.191,5.191,0,0,0,2.212,4.336,6.3,6.3,0,0,0,3.882,1.274,7.81,7.81,0,0,0,2.615-.469,11.6,11.6,0,0,0,2.673-1.392v1.538h8.2a5.636,5.636,0,0,1-.7-1.75,11.781,11.781,0,0,1-.1-2.424v-5.815a11.5,11.5,0,0,0-.293-3.149,3.339,3.339,0,0,0-1.26-1.611q-2.227-1.641-7.646-1.641a13.173,13.173,0,0,0-5.376.938q-2.183.981-2.183,1.9a.724.724,0,0,0,.249.542.829.829,0,0,0,.587.234q.455,0,1.115-.762a5.793,5.793,0,0,1,4.622-1.875q1.936,0,2.465.82a1.691,1.691,0,0,1,.264.762q.044.425.059,2.285v1.787A11.034,11.034,0,0,0,352.514,4119.523Zm2.186,7.874a5.952,5.952,0,0,1-1.516,1.062,3.482,3.482,0,0,1-1.5.4q-.85,0-1-.674a9.742,9.742,0,0,1-.073-1.406v-3.5a8.419,8.419,0,0,1,.146-2.124,1.07,1.07,0,0,1,1.113-.674,7.1,7.1,0,0,1,2.856.923Z" fill="#222"/>
      <path id="Op_component_11" data-name="Op component 11" d="M375.259,4114.11l-9.3-.147-.513-.014a1.155,1.155,0,0,0-.667.139.641.641,0,0,0-.183.535q0,.6.688.6.264,0,.7-.044,2.079-.176,5.3-.176l1.552.015-.366.586-1.948,3.105q-4.657,7.456-7.63,11.4H372.4l7.661.074.879.015q.967,0,.967-.688,0-.7-.732-.7-.234,0-.644.03-3.045.278-6.1.278h-1.859l.234-.4,1.215-1.934,8.314-12.671Z" fill="#222"/>
      <path id="Op_component_12" data-name="Op component 12" d="M383.383,4111q0,2.08,3.677,2.08a6.113,6.113,0,0,0,2.864-.549,1.687,1.687,0,0,0,1.018-1.531q0-2.021-3.867-2.021-3.691.029-3.691,2.021Zm0,3.105-.015.557.044,2.783.029,2.5-.044,4.761-.073,5.39h7.529l-.029-1.318-.059-3.032.044-5.391.029-3.545.029-2.285v-.425Z" fill="#222"/>
      <path id="Op_component_13" data-name="Op component 13" d="M393.44,4114.11l.044,3.179.044,3.281-.044,3.793-.044,5.742h7.485l-.015-.629-.044-4.307.029-3.149.029-4.116.015-.6a8.986,8.986,0,0,1,1.8-1.23,3.547,3.547,0,0,1,1.553-.41,1.018,1.018,0,0,1,1.011.469,1.416,1.416,0,0,1,.139.535q.022.3.037,1.868l.015,4.512-.038,2.988-.05,4.072h7.441l-.044-3.413.029-6.782a11.447,11.447,0,0,0-.374-3.464,3.537,3.537,0,0,0-1.457-1.78,6.221,6.221,0,0,0-3.516-.953,9.162,9.162,0,0,0-3.193.608,14.635,14.635,0,0,0-3.354,1.824v-2.036Z" fill="#222"/>
      <path id="Op_component_14" data-name="Op component 14" d="M423.008,4122.547l4.395-.014h3.413a8.3,8.3,0,0,0-3.4-7.222,8.314,8.314,0,0,0-8.247-.894,8.282,8.282,0,0,0-2.812,2.021,8.161,8.161,0,0,0-1.611,2.644,8.49,8.49,0,0,0-.586,3.054,8.316,8.316,0,0,0,8.306,8.291,9.272,9.272,0,0,0,3.728-.835,9.9,9.9,0,0,0,3.2-2.167,2.888,2.888,0,0,0,.982-1.655.673.673,0,0,0-.161-.461.522.522,0,0,0-.41-.183.583.583,0,0,0-.381.146,4.538,4.538,0,0,0-.571.688,9.1,9.1,0,0,1-2.878,2.571,6.821,6.821,0,0,1-3.362.93q-1.143,0-1.45-.674a5.147,5.147,0,0,1-.161-1.67v-4.541Zm-.22-.878L421,4121.61v-4.269a5.956,5.956,0,0,1,.205-2.061q.322-.658,1.611-.658a1.964,1.964,0,0,1,1.67.57,1.013,1.013,0,0,1,.205.5q.029.271.059,1.645v4.269Z" fill="#222"/>
    </g>
  </g>
</svg>
