<svg id="Layer_1" data-name="Layer 1" xmlns="http://www.w3.org/2000/svg" viewBox="0 0 250 174.65"><title>eready</title><path d="M183.51,167.55l-.66.08c0,.27,0,.53,0,.79,0,.65,0,.7-.66,1.07l-.7-.4c-.07.52-.16.95-.19,1.39s0,.52-.51.54l-.32.9c-.8.05-.87-.92-1.57-1l-.28.39c-.32-.15-.62-.3-.93-.43s-.62-.5-1.06-.21c-.08.05-.27-.09-.4-.13l-.8-.19-.15.8-1.17-.83a.69.69,0,0,0-.25-.14l-2-.32a3.34,3.34,0,0,1-.63-.12,2.58,2.58,0,0,0-1.38-.07c-.7.08-.83.64-1.18,1-.07.07,0,.28,0,.42a.59.59,0,0,1-.3.72c-.07,0-.12,0-.16,0a1.61,1.61,0,0,0-2,.1,1.1,1.1,0,0,1-.36.21c-.48.09-.85.22-.69.85,0,.13-.13.36-.26.46s-.33.08-.53.11c.21.34.67.55.46,1.14l-.69-.4a20.42,20.42,0,0,0-3.24-1,8,8,0,0,0-1.2-.27,2.42,2.42,0,0,0-.45,0c.07.59.56.79.92,1.21l-.58.51a5.23,5.23,0,0,1-.81-.44,7.36,7.36,0,0,0-2.88-1.18c-1-.23-2-.51-3-.75a21.32,21.32,0,0,0-5.09-.77,29.78,29.78,0,0,1-4.41-.42c-1.52-.21-3-.5-4.52-.78-.52-.1-1-.28-1.55-.39a23.08,23.08,0,0,0-3.34-.7c-.84-.07-1.54-.51-2.35-.61s-1.62-.34-2.43-.47c-1.47-.25-2.93-.46-4.4-.69-.62-.1-1.24-.22-1.87-.3-.26,0-.53-.17-.8.11-.11.12-.47,0-.7,0q-2.64-.4-5.26-.85c-.76-.13-1.51-.34-2.28-.46s-1.68-.2-2.51-.3c-1.25-.14-2.51-.27-3.75-.44-.55-.08-1.07-.29-1.61-.4s-1.39-.23-2.09-.34c-.93-.14-1.86-.31-2.8-.4a21.36,21.36,0,0,0-2.89-.14c-2,.08-4,.06-6,.06-1.26,0-2.52,0-3.78,0a2.9,2.9,0,0,0-.66.06,2.33,2.33,0,0,1-1.62-.09,2.24,2.24,0,0,0-.94-.08c-1.07,0-2.14,0-3.2.1a10.61,10.61,0,0,0-3,.39c-.66-.19-1.29.26-2,0a3.87,3.87,0,0,0-1.51,0c-.46,0-.91.13-1.37.15-1.26.07-2.52.12-3.78.17a1.92,1.92,0,0,1-.72,0,14.74,14.74,0,0,0-2.72-.39,1.55,1.55,0,0,0-.56.08l-1.07.24-.33.42c-.15-.33-.29-.61-.41-.9a1.48,1.48,0,0,1,.21-1.32c.36-.63.34-.67-.37-.79l-.3-.1c0-.38.32-.54.52-.76a1.15,1.15,0,0,0,.35-.67,2.3,2.3,0,0,1,.95-1.34A14.75,14.75,0,0,1,70,156.76a3,3,0,0,0,1.18-.88c-.19-.29-.39-.44-.77-.28-.56.23-1.14.4-1.71.59a.56.56,0,0,1-.24,0c.22-.59.89-.47,1.23-.81s.94-.35,1.4-.52c0-.35-.15-.47-.48-.5-1-.08-2-.22-3-.27-.5,0-1,.08-1.52.09-1,0-1.9,0-2.84,0a14.32,14.32,0,0,0-1.58.23.9.9,0,0,1-.35,0,6.39,6.39,0,0,0-3,0,5.45,5.45,0,0,1-2.44.13,2.26,2.26,0,0,0-.73,0c-.69,0-1.37.16-2.07.2a30.22,30.22,0,0,0-3.63.61,1.18,1.18,0,0,1-.64,0,2.09,2.09,0,0,0-1.21-.09c-1.47.21-2.94.39-4.4.63-1.27.21-2.52.52-3.79.74-.88.15-1.78.19-2.66.35s-2,.37-2.92.62c-1.48.39-2.94.84-4.42,1.24-1.14.31-2.29.59-3.44.87a1.43,1.43,0,0,1-.58,0,10.3,10.3,0,0,0-2.22,0,2.2,2.2,0,0,1-.58,0,.85.85,0,0,1-.53-1.35,13.28,13.28,0,0,0,.58-1.4,2.87,2.87,0,0,1,.23-.6,18.76,18.76,0,0,1,4.18-5c.58-.42,1-1,1.59-1.49s1.35-1,2.05-1.49,1.26-.78,1.89-1.17l0-.16a10.06,10.06,0,0,0-1.37-.39.72.72,0,0,1-.73-.8c0-.22-.07-.43-.11-.7a5.12,5.12,0,0,0-1.73.48l.19.6h.6l-.75,1c-.08,0-.21-.11-.15-.3a1,1,0,0,0-.12-.86c-.17-.29.06-.66.45-.79s.8-.19,1.2-.29c.16,0,.31-.11.47-.16l0-.2c-.34,0-.69,0-1,0-1.16.05-2.32,0-3.46.18a9.83,9.83,0,0,1-3.25-.24c-.37-.08-.82-.13-1-.64a1.42,1.42,0,0,1,.3-.05l1.9.47a1.36,1.36,0,0,0,.35.07l5.25,0s.06,0,.19-.17l-1.94,0a19.74,19.74,0,0,1-3.91-.34,2.36,2.36,0,0,1-1.19-.67c-.5-.52-.37-1,.31-1.16.22-.06.43-.1.64-.17a2.75,2.75,0,0,0,.33-.15c.15-.33.27-.61.4-.88a.7.7,0,0,1,.63-.4c.49-.05.46-.09.49-.67a3.83,3.83,0,0,1,.24-.75l-1.34-.13c.33-.9,1.29-.46,1.74-1l-2.49-1.32v-.8a2.81,2.81,0,0,0-.49-.05,29.5,29.5,0,0,0-3.58.63c-1,.24-2,.31-2.94.46a2.2,2.2,0,0,0-.36,0,10.32,10.32,0,0,1-5-.07c-.31-.07-.63-.07-.94-.13s-.41-.33-.15-.51a5.15,5.15,0,0,0,1.28-1.47c.17-.24.5-.36.74-.57s.66-.62,1-.94c.07-.07.09-.19.16-.24a21.82,21.82,0,0,1,1.91-1.27c.87-.48,1.82-.82,2.68-1.3A4.11,4.11,0,0,0,19.23,129a14.66,14.66,0,0,0-1.53-1,13.45,13.45,0,0,1-3.41-2.58c-.12-.12-.25-.23-.38-.34a1.05,1.05,0,0,0-1-.23,4.08,4.08,0,0,1-1.16.1,10.94,10.94,0,0,0-3,.33c-.58.16-1.18.25-1.78.36a.57.57,0,0,1-.42-.07,3.18,3.18,0,0,0-2-.77,1.63,1.63,0,0,1-1.15-.68,1.53,1.53,0,0,0-1.33-.74,8.69,8.69,0,0,1-.88-.07c-.46-.07-.6-.42-.3-.78a2.47,2.47,0,0,1,.39-.32c.46-.34.95-.67,1.38-1s.65-.7,1-1.08a3.66,3.66,0,0,0-1.83-.31c-.62,0-.64,0-.55-.67l-.86,0a3.2,3.2,0,0,1,1.05-1.54.92.92,0,0,0,.34-1,1.66,1.66,0,0,1,.1-.46c0-.17,0-.19-.29-.17s-.28-.46-.62-.22a2.51,2.51,0,0,1-.67.22,1.94,1.94,0,0,1-.12-2.16,8,8,0,0,1,2-2.92,16.69,16.69,0,0,1,3.88-2.55A15.68,15.68,0,0,1,9.67,107a9.37,9.37,0,0,0,1.47-.62,37.8,37.8,0,0,1,7.09-2c.66-.14,1.24-.48,1.89-.63,1.25-.29,2.5-.56,3.76-.8.89-.17,1.78-.25,2.67-.4a.66.66,0,0,0,.44-.29,12.13,12.13,0,0,0,.53-1.42A3.74,3.74,0,0,1,28.82,99c.65-.52,1.32-1,2-1.49.23-.17.45-.29.43-.67,0-.2.25-.45.44-.61.38-.31.8-.58,1.29-.94a6,6,0,0,1-1.52-.61c-.3-.18-.82,0-1.22.06-.69.16-1.36.38-2.07.5l2-.94c-1.09-.33-1.91.38-3,.63l.38.23c0,.06,0,.14-.05.15a4.19,4.19,0,0,1-2.13.17c-.82-.18-1.63-.45-2.44-.71s-.9-.37-.76-1.25a.61.61,0,0,0,0-.14c.18.06.41,0,.42.37a.84.84,0,0,0,.35.56,4.78,4.78,0,0,0,.88.41c.32-.47.24-1.2.94-1.38l1.69-.42a10.76,10.76,0,0,0-1.13-.09,7.75,7.75,0,0,0-1.27.09c-.63.12-1.26.3-1.88.46a1.44,1.44,0,0,1-1,.39c-.26,0-.52.21-.81.34-.05-.32.36-.66-.13-1l-.74.75a3.47,3.47,0,0,1,1.07-2.06,1.23,1.23,0,0,0-1.31-.58,20.2,20.2,0,0,0-2,.24c-.74.09-1.5.14-2.24.26a4.84,4.84,0,0,0-1.3.37,4.58,4.58,0,0,0-1,.69.78.78,0,0,0,.1,1.41,11.69,11.69,0,0,0,1.3.57c-.16.11-.27.26-.38.25a3,3,0,0,1-2.15-.9,2.79,2.79,0,0,1-.48-.8c-.12-.23-.19-.49-.3-.74a1,1,0,0,0-1-.61,26.86,26.86,0,0,1-3.11-.32A4.1,4.1,0,0,1,5.23,91a9.19,9.19,0,0,1-2.11-1.88A11.7,11.7,0,0,1,.73,83.53a8.62,8.62,0,0,1,.28-4c.16-.54.38-1,.51-1.59a10.92,10.92,0,0,0,.16-1.28l-.87-.27c.45-.46.84-.89,1.27-1.27a1,1,0,0,0,.39-.66,4.61,4.61,0,0,0,.07-.5,7.44,7.44,0,0,1,1.19-4.06,12.76,12.76,0,0,1,1.66-2c1.31-1.3,2.66-2.56,4-3.81.55-.5,1.18-.92,1.75-1.41.17-.14.25-.38.4-.55a5.8,5.8,0,0,1,.49-.47,1,1,0,0,0-.46-1.08c.41-.48.23-.9-.11-1.34-1.19-1.57-1-1.33-.09-2.77a24.08,24.08,0,0,1,1.92-2.38c.54-.65,1.13-1.26,1.67-1.91s.33-.73,0-1.38-.91-.84-1.47-1.13a3.67,3.67,0,0,1-2.21-3.08A2.06,2.06,0,0,1,12,44.83a3.45,3.45,0,0,0,1.5,3c.29-.26,0-.43,0-.61s-.4-.56-.17-.95c0-.07-.14-.37-.28-.44a1.7,1.7,0,0,1-.81-1.81,3.42,3.42,0,0,1,1.22-2.63,2,2,0,0,0,.66-1.26,4,4,0,0,1,1.13-2.06,6.39,6.39,0,0,0,.93-1.29A11.1,11.1,0,0,1,18,34.45c1.34-1.6,2.7-3.18,4.12-4.71a18.41,18.41,0,0,1,2.38-2c1.15-.85,2.36-1.63,3.54-2.43a6.53,6.53,0,0,0,1.17-.9l-.42.06c-1,.15-2,.32-3,.44a21,21,0,0,0-4,1.13c-1.31.43-2.61.91-3.91,1.38-1.07.4-2.12.82-3.18,1.23-.11.05-.26.13-.33.09-.44-.24-.79,0-1.17.17a1.36,1.36,0,0,1-.49.12c-.27,0-.39-.13-.41-.39a1.53,1.53,0,0,1,1.19-1.88,2.49,2.49,0,0,0,1.13-.83,5.18,5.18,0,0,1,1.34-1c.29-.19.58-.35.61-.75a.53.53,0,0,1,.15-.32A17,17,0,0,1,18.71,22a17,17,0,0,0,1.64-1.33,1.75,1.75,0,0,1,.33-.28c1.37-.71,2.17-2.07,3.43-2.9a10.62,10.62,0,0,0,1.48-1.14c1.14-1.09,2.37-2.08,3.56-3.11a17.28,17.28,0,0,1,3.48-2.09A16.61,16.61,0,0,1,37.3,9.82c1.62-.32,3.24-.64,4.85-1,2.24-.5,4.48-1,6.73-1.54,1.42-.32,2.86-.56,4.28-.88s2.64-.65,4-.93S59.61,5,60.85,4.8a44.32,44.32,0,0,1,5.86-.65c1.89-.08,3.77-.3,5.66-.42a2,2,0,0,1,1.45.16c.21.15.62,0,.93,0,3-.32,6-.63,9.06-1,1.37-.16,2.73-.41,4.1-.62a1.13,1.13,0,0,1,.36-.06c1.21.22,2.35-.27,3.52-.38,3-.28,6-.52,9-.89,1.74-.22,3.49-.22,5.23-.36,1.11-.09,2.22-.15,3.34-.21.24,0,.48,0,.72,0s.62,0,.93,0a1.63,1.63,0,0,1,.57-.06,12.71,12.71,0,0,0,3.2.06c1.63,0,3.26,0,4.88-.06h.81l5.17,0c1.06,0,2.12,0,3.18,0a.45.45,0,0,1,.51.32c-5.95.76-11.91.58-17.94,1,.14.17.2.31.3.34a1.38,1.38,0,0,0,.5,0c1.65,0,3.3.13,4.95.13S120.38,2.06,122,2a38,38,0,0,1,3.85.11A33.68,33.68,0,0,0,130,2.08c1.11-.06,2.22-.22,3.33-.31.41,0,.83,0,1.24,0l5.38.11A3.54,3.54,0,0,0,141,1.79l-3.67-.47,0-.07,1-.25a8,8,0,0,1,1-.27c.37,0,.76,0,1.15-.07-.47-.35-1-.2-1.74-.38a2.27,2.27,0,0,1,.46-.13C140.49.09,141.76,0,143,0s2.51.21,3.77.29a27.76,27.76,0,0,0,4,.35,5.69,5.69,0,0,1,1.08.09,28.88,28.88,0,0,1,8.55,2l.07,0c.19.57.71.5,1.14.61s.89.24,1.34.36a1.67,1.67,0,0,1,.68.28c-.47-.06-.94-.1-1.41-.19l-6.47-1.37c-.59-.12-1.18.22-1.76,0-.16-.06-.43.05-.38-.29,0,0-.18-.13-.29-.14-.74-.1-1.49-.19-2.25-.22l.38.11c.08.57.13.62.85.73,1.08.16,2.16.3,3.24.49q3,.53,5.94,1.11c.83.16,1.66.37,2.48.59.48.13.94.37,1.42.49q3.7.92,7.43,1.79c1.06.25,2.14.43,3.21.65.08,0,.15.08.29.16l-.4.3,3.18.79,0,.15a2.2,2.2,0,0,0-.44-.05c-.46,0-.94-.29-1.4.06-.1.06-.32-.05-.49-.08-1.37-.37-2.85-.3-4.27-1,.65-.13.65-.13,1,.12s.81.15,1.25-.32c-.91-.15-1.76-.3-2.61-.43a8.58,8.58,0,0,0-1.23-.14,1,1,0,0,1-.65-.12,1.24,1.24,0,0,0-1-.14,1.81,1.81,0,0,1-1.05.06c-.5-.09-1-.21-1.5-.29A10.29,10.29,0,0,0,163,6.51a1.39,1.39,0,0,1-.57,0c-.55-.1-1.1-.23-1.65-.32-.91-.14-1.82-.27-2.73-.37-1.18-.14-2.36-.23-3.53-.37s-2.4-.32-3.6-.47c-.1,0-.21.09-.4.18.46.14.8.27,1.15.34,1.79.33,3.58.63,5.37,1s3.7.44,5.55.62c.75.08,1.5.07,2.23.21,1.43.27,2.85.61,4.26,1a20.88,20.88,0,0,0,4.72.85,8.63,8.63,0,0,1,1.52.1,2.55,2.55,0,0,0,1.42-.1c0,.07.1.2.16.21a6.91,6.91,0,0,0,2.44.16,6.48,6.48,0,0,1,2.23.24l1.56.27.12-.18-.47-.14.11-.14a.47.47,0,0,1,.2,0c.55.17,1.09.36,1.64.54a6.79,6.79,0,0,0,2.37.32,19.76,19.76,0,0,0,2.75-.38,1,1,0,0,1,.41.06l1.05.29c.07,0,.16,0,.21,0,.84.78,2.06.8,2.95,1.5a3.36,3.36,0,0,1,1.14,1.35l-2,1.15-1.45-.73c0,.84.1,1,.9,1,.45,0,.93.15,1.35-.16a.38.38,0,0,1,.33,0,12.78,12.78,0,0,1,1.27,1,2.24,2.24,0,0,1,.7,1.68,1.77,1.77,0,0,1-.47,0,4.55,4.55,0,0,1-1.75-.86,1.8,1.8,0,0,0-.75-.44,6.2,6.2,0,0,1-2.7-1.23,1,1,0,0,1-1.22.05c-.29-.13-.6-.21-.9-.31-.09,0-.24,0-.27-.08-.33-.58-.93-.5-1.49-.51l.91.47-.64.15,0,.5-.94-.45c-.3.79-.88,0-1.4.28l1.55,1.36-.09.13-.82-.53,0,.58c-.62-.26-.89-1-1.77-1l.56,1.16-.1.12-1.06-.45c0,.42,0,.69.46.8a9.71,9.71,0,0,1,1.39.43c.77.32,1.53.7,2.3,1a2.67,2.67,0,0,0,.88.32,29.07,29.07,0,0,1,5.14,1,10.54,10.54,0,0,1,1.63.58,1.2,1.2,0,0,1,.7,1.36,1.55,1.55,0,0,1-1,1.47,1.08,1.08,0,0,1-.35.1c-.57,0-1.15,0-1.72.09a3.88,3.88,0,0,1-2.52-.43,2,2,0,0,0-.91-.21L183,22.5a1,1,0,0,0-1,.59l.59.51-.06.15-1-.21-.22.36a1,1,0,0,0-1.3,0,4.19,4.19,0,0,1,.14.47c.07.39-.06.54-.47.48-1-.13-1.92-.31-2.88-.43a12.85,12.85,0,0,0-1.52,0c-.26,0-.53,0-.79,0a25.59,25.59,0,0,0-4.95-.08,1.78,1.78,0,0,0-.93.34,1.34,1.34,0,0,1-.92.3c-.32,0-.63,0-1,0-.63,0-.69.08-.86.71-.12.43-.23.51-.64.47L163.4,26a2.61,2.61,0,0,0-1.34.19,5.15,5.15,0,0,1-1.63.25c-.53,0-1.07,0-1.6,0a4.4,4.4,0,0,0-.87.29,7.94,7.94,0,0,0,2.54.93.52.52,0,0,0,.38-.13.6.6,0,0,1,.84,0c.18.18.32.14.52.11a6.35,6.35,0,0,1,1.15-.07c.08,0,.16.17.34.37l1,.23v.09l-1,.06,0,.16a4.63,4.63,0,0,0,.52.3c.65.26,1.3.52,2,.75.28.1.52.11.75.44s.81.32,1.24.46a.35.35,0,0,1,.21.14,1,1,0,0,1-.34.06c-.5-.09-1-.2-1.5-.3-.23-.05-.42,0-.54.21a.66.66,0,0,1-.88.29c-.53-.3-1.09-.14-1.63-.21a9.22,9.22,0,0,0-2,.05c1.16.43,2.42.31,3.62.72l-.91.22c0,.26.25.46-.07.65-.1.07-.09.32-.14.49l-1.45-.1v.07c1,.15,2,.23,3,.45a9.18,9.18,0,0,1,3,.88,3.38,3.38,0,0,1-.45,0c-1.64-.31-3.29-.63-4.94-.92a2.21,2.21,0,0,0-1.27,0c.15.16.23.26.33.35l.36.25c-.25.46-.25.46.83.94l-.66.12c.14.89.08.85-.47,1.6a1.71,1.71,0,0,0-1.58.1V37c.05,0,.08.08.12.08a3.89,3.89,0,0,1,1.16.3c.91.32,1.85.58,2.77.86.51.16,1,.3,1.53.47,1.82.62,3.63,1.24,5.44,1.88,1.49.53,3,1,4.44,1.65,1,.45,2,.53,3,1,1.13.53,2.29,1,3.44,1.51A23.19,23.19,0,0,0,186.61,46c.92.22,1.81.54,2.73.76A63.71,63.71,0,0,1,195.5,49c1,.38,2.1.74,3.15,1.11l.14,0c1.4.54,2.8,1.07,4.19,1.64,1.17.47,2.34,1,3.48,1.49a30.57,30.57,0,0,1,5.67,3.24,8.72,8.72,0,0,1,3.17,4.26,17.23,17.23,0,0,0,.77,1.88,2.69,2.69,0,0,1,.26,1.42,1.24,1.24,0,0,0,.39,1.06c.45.45.93.89,1.42,1.31a2.72,2.72,0,0,1,1.11,2.62,2.84,2.84,0,0,1-2.2,2.42,8.39,8.39,0,0,1-4,.5,2.81,2.81,0,0,0-.58,0,1.18,1.18,0,0,0-.23.09,6.92,6.92,0,0,0,1.4,1.68A21.76,21.76,0,0,1,216.18,77a6.58,6.58,0,0,0,.38.54,7.9,7.9,0,0,1,1.08,1.79,3.62,3.62,0,0,0,.85,1.15q1.56,1.64,3.16,3.21c.36.35.07.77.31,1.11l-.17.06-1-1.34c.18,1.18.56,2.35-.07,3.4a4.77,4.77,0,0,0-1.06.32,4.55,4.55,0,0,1-2.76.39c-.72,0-1.44-.17-2.15-.27a1.45,1.45,0,0,1-.56-.15A2.12,2.12,0,0,0,213,87a1.14,1.14,0,0,1-.8-.26,1.51,1.51,0,0,0-1.41-.38c.14.58.4.78.94.73.34,0,.34,0,.59.41-.34.24-.69-.54-1,0a10.27,10.27,0,0,0,.41,2,4.38,4.38,0,0,0,1.11,1.4,7.18,7.18,0,0,0,1.5,1,1.13,1.13,0,0,1,.59.83l-1.22-.77c-.57.31.21.67-.07,1.05-.37-.65-.94-.53-1.43-.3a7.37,7.37,0,0,1-4.05.32,1,1,0,0,0-.64.11,3.09,3.09,0,0,1-2.07.37.5.5,0,0,0-.24,0,1.66,1.66,0,0,1-1.52-.16,8,8,0,0,0-1.21-.44c-.41-.13-1-.19-1.17-.49-.34-.49-.82-.44-1.25-.6s-.69-.22-1-.36a8.39,8.39,0,0,0-2.44-.32l-.78-.08c0-.09,0-.12,0-.13s0,0,.07,0l.13-.07c0-.18-1.21-.22-1.78,0A31,31,0,0,0,196.47,93c-.09.47-.09.46.4.69a5.89,5.89,0,0,1,.54.32c-.17.38-.36.59-.75.43s-.51,0-.63.31c.1.55.58.75.94,1.06a5,5,0,0,1,.61.6c.23.28.3.68.78.79.22,0,.32.49.54.67.48.41,1,.75,1.5,1.15,1.18,1,2.36,1.92,3.52,2.91a10,10,0,0,1,1.12,1.14c.1.11.1.32.18.58a1,1,0,0,1,.43.26,4.32,4.32,0,0,0,1.29,1,2.16,2.16,0,0,1,.7,1.12,1.71,1.71,0,0,0,.46.7c.35.34.64.73,1,1.08a4,4,0,0,0,.54.47c.52.39,1.06.76,1.6,1.15a1.09,1.09,0,0,0,0,1.14c.32.69.6,1.4.93,2.09a.92.92,0,0,0,.37.41c.53.3,1.07.56,1.62.84l.92-.6c.19.47-.26.54-.35.87a5,5,0,0,0,1.68.69c.41.09.75.19.87.64a.45.45,0,0,0,.19.22c.59.33.79,1,1.11,1.49a.6.6,0,0,0,1,.14,6.4,6.4,0,0,1,.51-.4c.05,0,.14,0,.24,0,.28.41.06.89.2,1.45.18.11.45.4.75.43.48,0,.7.41,1,.64s.77.58,1.18.83a1.11,1.11,0,0,0,.51.06,3.73,3.73,0,0,0,.56.62c1.09.76,2.23,1.46,3.3,2.25a25.36,25.36,0,0,1,1.9,1.7.46.46,0,0,1,.14.17,22.47,22.47,0,0,0,1.84,2.86c.58.86,1.07,1.77,1.62,2.64a.94.94,0,0,0,.4.3l3.94,1.69c.69.28,1.4.5,2.07.82a7.23,7.23,0,0,1,1,.73,1.39,1.39,0,0,0,.31.18,9.85,9.85,0,0,1,3.46,1.94,22.89,22.89,0,0,1,1.92,1.35,1.72,1.72,0,0,1,.23,2.72.78.78,0,0,1-.41.27c-.81.14-1.63.27-2.44.36a6.07,6.07,0,0,1-1.21,0l2.57-.6.28-.08c.92-.33,1-.66.29-1.45l.52,0a.64.64,0,0,0-.56-.58.61.61,0,0,1-.53-.59c-.07-.46-.22-.5-.73-.36a.59.59,0,0,1-.39-.05,3.09,3.09,0,0,1-.83-.58,3.81,3.81,0,0,0-1.54-1c-.09,0-.16-.1-.3-.18l.27-.3c-.06-.1-.14-.21-.21-.33l-.9-.38a2.59,2.59,0,0,0-.4-.09c.43.21.76.7,1.3.47-.13.13-.25.34-.4.36a.92.92,0,0,1-.68-.13,9.22,9.22,0,0,0-2-1.13c-.5-.26-1-.46-1.61-.72l.51-.26c-.32-.22-.32-.22-.94.18.56.82.93,1.8,2.15,2-.11.69.57.74.86,1.14l.55-.16a1.37,1.37,0,0,1,.27,1.53l-1.71-.13,1.06,1.46-.54.45c-.48-.51-1.31-.31-1.71-1a1.19,1.19,0,0,0-.22.25c-.17.32-.39.25-.58,0s-.35-.3-.62-.12a.79.79,0,0,1-.41,0c-.09,0-.22-.12-.26-.09-.49.4-1,0-1.42,0s-1.07.29-1.59-.05c-.35.32-.73.2-1.15-.08a1.15,1.15,0,0,0,.47,1.13l-.27.5c.22.39.36.82.83,1a.75.75,0,0,1,.39,1,14.15,14.15,0,0,0,1.38.72c1.14.42,2.18,1,3.36,1.38,1,.3,2,.81,3,1.2.76.3,1.56.53,2.32.83s1.46.64,2.2.93,1.27.44,1.91.65c.26.09.57.09.71.41-.25.26-.45.08-.67,0-.4-.13-.82-.23-1.24-.35-.11,0-.29,0-.34-.09-.36-.6-1.06-.52-1.57-.84a1.09,1.09,0,0,0-.76-.17,2.48,2.48,0,0,1-1.46-.37,3.6,3.6,0,0,0-.94-.32,12.29,12.29,0,0,0-1.81-.16,6.09,6.09,0,0,0-1.19.3,2.05,2.05,0,0,0-1.92.08c.21.59,1,.43,1.25,1h-.5c.53.85,1.37.92,2.17,1.09.18-.6.67-.37,1-.46l.06-.58-1.29-.72a2,2,0,0,1,1.95,1.06c.37,0,.75-.49,1.1,0l-.4,1.07c-.55-.13-1,.5-1.73,0l.16.4a1.33,1.33,0,0,1,.05.19h-1.8l-.13.86-1.58-.32c-.05,0-.13,0-.14,0-.36.39-.75,0-1.12.07a3.28,3.28,0,0,1-1.46-.27l-1.31-.43c-.05.19-.05.39-.14.46a.54.54,0,0,1-.46.09c-.36-.11-.66-.29-1.09-.08-.17.09-.52-.2-.85-.34l-.13.26-1.06-.37c-.18.82-.87.36-1.3.65.23.47.76.5,1.24.82l-.72.37.49.42-.61.11.87,1.06-1.68-.27c.55.55,1.3.51,1.95.73s1.34.3,2,.57a1.05,1.05,0,0,1-.41.14c-.71-.05-1.5.34-2.14-.28-1.28-.16-2.41-.91-3.77-.83a6.44,6.44,0,0,1-1.82-.44,1.81,1.81,0,0,0-.81-.06l.48.38h-.7a3.81,3.81,0,0,0,1.66.31,6.45,6.45,0,0,1,2,.34c.42.08.83.19,1.25.27,0,0,.11-.05.16-.09l.07,1.2a1.37,1.37,0,0,1-1.61-.53l.58,0,.48,0c0-.12,0-.19-.07-.2l-1.79-.52c-.24.28-.48.27-.81.11a6.83,6.83,0,0,0-1-.31,6.46,6.46,0,0,0-1-.22c-.58,0-1.15-.34-1.76-.12-.13,0-.45-.07-.46-.13,0-.45-.41-.32-.64-.41s-.62-.23-.94-.33a.63.63,0,0,0-.42,0,.66.66,0,0,1-.86-.34l-.66.23-.15-.1a3,3,0,0,0-.76-.39c-.82-.17-1.66-.29-2.49-.44a9.78,9.78,0,0,1-2.05-.39,10.37,10.37,0,0,0-2.32-.46,2.3,2.3,0,0,0-.38,0c1.09.61,2.33.4,3.33,1.07l.26-.11.72.63a33.42,33.42,0,0,0-5.17-1.25c-1.69-.36-3.42-.55-5.13-.82l0,.16c.44.11.88.24,1.32.34a4.45,4.45,0,0,0,.72.1,1.5,1.5,0,0,1,1.19.52c-1.07-.16-2.13-.33-3.2-.48-.48-.06-1-.09-1.44-.13-.12,0-.28,0-.36-.06a2.18,2.18,0,0,0-1.67-.4,1.53,1.53,0,0,1-.36-.07l-.93-.33-.06.55,1-.23-.22.31,1.57.27,1,.2,1.65.38a1.72,1.72,0,0,1-.46.09l-2.44-.36a4.23,4.23,0,0,0-.51,0l.38.31a5.22,5.22,0,0,1-2.55,0,15.28,15.28,0,0,0-4-.57c-.06,0-.12,0-.18-.17l1.34-.14v-.07l-5.22-.36a.42.42,0,0,0-.5-.43c-1.67.11-3.34,0-5,0-.44,0-.71-.06-.86-.55s-.62-.46-1-.51-.76-.11-1.14-.18l-.12,0-1.41.31.38-.85c-.46-.1-.89-.18-1.31-.28-.23-.05-.46-.15-.69-.2s-.53-.16-.69-.06c-.53.31-1,0-1.55,0s-.94-.08-1.44-.12c0,.14,0,.21.06.22a22.14,22.14,0,0,0,2.78,1.33,2,2,0,0,1,.78.49.61.61,0,0,0,.73.14,2.36,2.36,0,0,1,1.79,0c.51.14,1,.26,1.55.38a.52.52,0,0,0,.35,0,1.35,1.35,0,0,1,1.3.12l-.74.18c.3.22.71.34.58.8a4,4,0,0,0,.93.54c.86.23,1.74.37,2.61.57.37.08.72.19,1.17.31-.56.4-.87-.17-1.31-.1a4.42,4.42,0,0,1-1.22-.2c.06.37.14.6.55.51.09,0,.31.11.32.19.05.61.48.72,1.07.8l-.55.19.6.3c.15.23.07.5-.28.87l.53,1.19c-.16.07-.45.22-.47.19-.18-.29-.62,0-.79-.43s-.42-.68-.85-.4c-.09.28-.2.51-.25.75s-.28.57.08.85c.21.17,0,.33-.1.42l-2.62-1.5c-.08,0-.12,0-.12.05v.6l.22,0c.06,0,.17-.09.18-.07.33.37.95.39,1.11,1a1,1,0,0,0,.57.61c.59.22,1.11.68,1.82.52.16,0,.36.13.55.21l.25-.32c.07,0,.12,0,.15,0s.24.14.26.24c.15.62.7.75,1.17.95a14.66,14.66,0,0,0,2.15.87,1.75,1.75,0,0,1,1.33,1.2c.09.26.2.45.5.44.91,0,1.08.7,1.26,1.33a4.11,4.11,0,0,1,0,1.16c-.61.28-.91-.36-1.47-.26l-.19.71c-.61-.09-.61-.84-1.09-1.05-.66.28-.06.86-.33,1.24-.36,0-.37-.39-.62-.58-.31.36-.65.33-1,.05a12.8,12.8,0,0,0-1.33-.73l-.33.55-.35-.56c-.25.16-.49.35-.6-.14,0-.16-.24-.29-.4-.47l-.24.46-1.21-.31c.23.32.52.54.25.91-.65-.14-.73-1.12-1.54-1l-.06.86-.15.07c-.36-.44-1.05-.55-1.15-1.28,0-.14-.27-.37-.4-.36-.38,0-.59-.26-.9-.36a.85.85,0,0,0-.92.11,1.33,1.33,0,0,1-1.22.08l-.87-.33c.13.58.23,1,.37,1.49,0,.12.22.19.34.27s.12,0,.13,0c.41.8,1.27.76,1.95,1,.89.29,1.83.41,2.74.61a1.61,1.61,0,0,1,.13.39,1.28,1.28,0,0,0,1.08,1.28c.5.12.49.53.56.9ZM129.71,2.92a18.86,18.86,0,0,0-5.51,0c-1.37.16-2.74.34-4.11.39a3.59,3.59,0,0,0-2.38,1c.24,0,.37.07.5.07l7.5-.07c1.06,0,2.12,0,3.18-.1.54,0,1.07-.1,1.6-.15l0-.18-1.08-.51Zm12.8,136.18v.11a5.52,5.52,0,0,0,.53.18c1.44.38,2.93.43,4.37.85a19.81,19.81,0,0,0,3,.53c.59.09,1.23.32,1.7-.33.07-.1.28-.1.3-.11.11.18.16.36.25.38a.71.71,0,0,0,.47-.08,1.46,1.46,0,0,1,1.09-.22s.08,0,.14-.07l0-.47-.61.1a3,3,0,0,0-.48-.4,5.55,5.55,0,0,0-2.62-.56,17,17,0,0,0-1.74.14v.16l.47.08c-.27.15-.53.37-.8,0,0-.06-.2,0-.3,0a7,7,0,0,0-1.75.28l-.88.06,0-.15.37-.33c-.31-.56-.78-.41-1.18-.33a4.21,4.21,0,0,1-1.58.1A2,2,0,0,0,142.51,139.1Zm34.15,16.07-.07.27a8,8,0,0,1,2,.91c.68.28,1.36.58,2.07.89.36-.86,1,.07,1.39-.23,0-.36-.21-.52-.45-.66a5.28,5.28,0,0,0-.73-.33l-.8-.37c0-.19.22-.5-.17-.55-.09,0-.2.19-.31.31-.34-.11-.68-.25-1-.33-.2-.05-.54-.07-.61,0-.23.37-.48.2-.76.12A4,4,0,0,0,176.66,155.17ZM25.53,93.94l1.1.49-.34.36a11.92,11.92,0,0,0,3.23-1.15c-.28-.31-.47-.7-.69-.72a4.26,4.26,0,0,0-1.63.15A11.27,11.27,0,0,0,25.53,93.94ZM217.4,86.83a1.64,1.64,0,0,0-.22-.14l-.4-.18c.7-.06,1.33.09,1.55-.75-1.35.56-2.83.16-4.28.89A7.54,7.54,0,0,0,217.4,86.83ZM82.75,4.49a.87.87,0,0,0,.86.3l1.89-.16A4.08,4.08,0,0,0,87.31,4a8.15,8.15,0,0,0-.86.16c-.31,0-.62.08-.94.1h-.86c-.23-.67-.41.1-.62,0a1.21,1.21,0,0,1-.14-.1c-.08-.06-.17-.17-.24-.16A1.23,1.23,0,0,0,82.75,4.49ZM199.09,148.81a14,14,0,0,0-3.19-.78c-.07,0-.15.12-.26.21.56.21,1.23-.14,1.51.55l.48-.18C197.78,149.13,197.78,149.13,199.09,148.81ZM124.84,4.5a29.9,29.9,0,0,0,6.69,0Zm7.41-.73a5.51,5.51,0,0,0,3.36-.12A10.29,10.29,0,0,0,132.25,3.77Zm62,145.06c.25.49.45.52,1.53.22A2.71,2.71,0,0,0,194.21,148.83ZM158.3,173.1l.08-.18a6.11,6.11,0,0,0-.67-.35c-.24-.08-.51-.25-.83.08ZM151.38,6c.64.28,1.26.67,2,.3Zm38.75,7.75a1.3,1.3,0,0,0,1,.81C191.08,13.94,191.08,13.94,190.13,13.75ZM13.58,42.42c-.64.31-.72.46-.58,1.09ZM194.77,21.14c-.32-.53-.84-.47-1.34-.52ZM189.09,147.7c.39.34.78.2,1.29.12C189.9,147.44,189.49,147.63,189.09,147.7Zm-12.88,15.23-.64.33,1,.48Zm4.08-12.26c.27.22.34.66.81.42C180.75,151.12,180.82,150.43,180.29,150.67Zm12.32-1.95.11-.19-.95-.39-.07.18Zm-33.8-112.4,0,.16,1.12.3,0-.14Zm-127.92,108v-.07l-.6,0v0Zm122-3.1,0,.17.45-.1,0-.12ZM138.1,3.77l0-.13-.34.08s0,.11,0,.11Zm54.18,144-.05.11.4.23.06-.13Z"/><path d="M210.46,95.23c-.22,0-.43,0-.65,0s-.67,0-1,.08l-2,.13c-.3,0-.6,0-.9,0v-.18l1.83-.15a3.64,3.64,0,0,0-1.74-.41,2.2,2.2,0,0,1-1.33-.17,5.2,5.2,0,0,0-1.27-.25,13,13,0,0,1-2.23-.67,1.08,1.08,0,0,1,.36,0,24.72,24.72,0,0,0,3.22.46A6.15,6.15,0,0,0,206,94c.33,0,.66,0,1,0,.57,0,1.14.14,1.72.17s.9,0,1.38,0l-.05-.51,1.31-.37c.85.82.86.84.52,1.66.43,0,.81.23,1.24,0,.2-.13.52-.06.78-.07a5.07,5.07,0,0,0,1.85-.74.62.62,0,0,1,.75.07l-.21.59.64.06,0,.16a2.87,2.87,0,0,1-.57.17c-.62.07-1.25.12-1.87.18a8.84,8.84,0,0,1-2.81-.11c-.12,0-.29-.08-.34,0-.32.33-.62.14-.93,0l.43-.23c-.29-.2-.51-.29-.79,0Zm-.1-1.25a.76.76,0,0,0,1,.18C211.11,93.77,210.82,93.81,210.36,94Zm.17.57,0-.13-.41-.12,0,.15Z"/><path d="M188.57,150.63l-.31-.49a.41.41,0,0,1,.11-.07,4.71,4.71,0,0,1,1.62.2c1.62.43,3.25.82,4.86,1.22a2.1,2.1,0,0,1-1.24,0,13.77,13.77,0,0,0-3.31-.65.83.83,0,0,1-.65-.21A.86.86,0,0,0,188.57,150.63Z"/><path d="M65,154.63c-1.17.49-2.41.06-3.63.18a1.66,1.66,0,0,1,.46-.19c1-.08,2.1-.14,3.16-.2Z"/><path d="M184.3,172.19l-1.93-1.61A1.54,1.54,0,0,1,184.3,172.19Z"/><path d="M201.67,150.76a1,1,0,0,1,.25-.06,2.09,2.09,0,0,1,.43,0c1.19.26,2.42.32,3.61.63l0,.18-4.24-.69Z"/><path d="M172.79,5.13l2.43.87,0,.14L173,5.64c-.32-.07-.23-.31-.23-.51Z"/><path d="M135.12.24H132V.1a12.53,12.53,0,0,1,3.12,0Z"/><path d="M204.79,95.39c-.82-.25-1.76.1-2.52-.49A5.73,5.73,0,0,1,204.79,95.39Z"/><path d="M194.4,152.36a7.9,7.9,0,0,1-2.67-.59A7.62,7.62,0,0,1,194.4,152.36Z"/><path d="M248.61,152.72a1,1,0,0,1-1.56.27A8.08,8.08,0,0,1,248.61,152.72Z"/><path d="M228.44,151.84c.75-.15.78-.13,1,.5h-.78Z"/><path d="M183.57,149.61c-.46-.29-1.07.11-1.47-.47l1.55.29Z"/><path d="M186.83,149.82l-1.7-.37A1.93,1.93,0,0,1,186.83,149.82Z"/><path d="M239.35,150.26c.61-.41.78.11,1.13.27l-.06.14Z"/><path d="M221.06,87.17l1.32-.62C222,87,221.66,87.34,221.06,87.17Z"/><path d="M172.79,5.13A4,4,0,0,1,171.06,5l0-.2,1.69.32Z"/><path d="M249.47,149.82l.35-.11c0,.5.3.9.13,1.44Z"/><path d="M229.39,150.2l-.4.42-.65-.56Z"/><path d="M130.12.25c.36-.27.77,0,1.25-.12l-1.22.32Z"/><path d="M188.27,166.07c-.55-.16-.37-.64-.55-1C188.23,165.39,188.23,165.39,188.27,166.07Z"/><path d="M183.91,165l-.47-.18.2-.69C184,164.29,183.9,164.6,183.91,165Z"/><path d="M247.55,148.52l.95.42C248,149,248,149,247.55,148.52Z"/><path d="M237.6,139.62l-.88-.34a1.3,1.3,0,0,1,1,.17Z"/><path d="M183.49,167.56l.38,1c-.65-.18-.32-.63-.37-1Z"/><path d="M232.21,140.19l.11-.73.48.37Z"/><path d="M204.94,152.27l.92,0,0,.13-.46-.08h-.45Z"/><path d="M217.75,152.42l.62.05v.15h-.6Z"/><path d="M193.5,152.68l-.63-.11,0-.09h.64Z"/><path d="M187.06,163.85c.09.41,0,.56-.23.58-.06,0-.12-.11-.18-.18Z"/><path d="M187.27,15.14l.42.36-.1.15-.48-.32Z"/><path d="M206.82,153.56l-.67-.15v-.1l.71.07Z"/><path d="M179,147.69l.12,0,.32.37a.45.45,0,0,1-.58-.21S179,147.74,179,147.69Z"/><path d="M235,153.63l.48.16,0,.16-.5-.12Z"/><path d="M132,169.07l-.62-.15,0-.17.61.16Z"/><path d="M183.78,170.08l.15.36s-.12.05-.12,0a3.7,3.7,0,0,1-.21-.33Z"/><path d="M207.63,153.83l-.41-.12,0-.13.41.07Z"/><path d="M199.51,152.4l-.59-.19v-.05l.6.1Z"/><path d="M165.5,31.49l.62.05v.09l-.62,0Z"/><path d="M187.46,152.72l-.48-.22.08-.18.46.2Z"/><path d="M214.07,151.8l-.56-.14,0-.13.56.11Z"/><path d="M217.4,152.57l-.54-.12,0-.16.52.08Z"/><path d="M240.59,139.27l-.24-.28s.13-.12.14-.11l.24.26Z"/><path d="M244.18,138l-.65-.19c.36-.23.54-.17.71,0Z"/><path d="M239.8,140.54c-.14-.22-.22-.29-.2-.33a.75.75,0,0,1,.17-.19c0,.06.14.12.15.18A1.27,1.27,0,0,1,239.8,140.54Z"/><path d="M146.3,172l-.42.18C146,171.92,146,171.92,146.3,172Z"/><path d="M133.81,1.4l-.34-.07,0-.13.35,0Z"/><path d="M166,36.37l.45.1,0,.12-.46-.08Z"/><path d="M242.44,139.78l.44-.17.05.08a1.66,1.66,0,0,1-.21.16,1.09,1.09,0,0,1-.26,0Z"/><path d="M228.92,151.47a2,2,0,0,1-.13-.42c0-.07.1-.13.15-.2a1.71,1.71,0,0,1,.22.25S229.1,151.2,228.92,151.47Z"/><path d="M190.44,151.25l-.56,0v-.1h.55Z"/><path d="M234.72,151l-.27-.28.07-.1a3.9,3.9,0,0,1,.35.19Z"/><path d="M246.64,150a1,1,0,0,1-.32.12c-.06,0-.17-.12-.17-.18s.09-.17.16-.19.15,0,.22.07Z"/><path d="M231.16,152.71c.13,0,.27,0,.4.06a.71.71,0,0,1,0,.17l-.41-.07Z"/><path d="M185.71,165a2,2,0,0,1,0-.34,1.06,1.06,0,0,1,.18,0v.36Z"/><path d="M215.13,152.13l-.31-.09s0-.08,0-.12l.33.06Z"/><path d="M231.3,150.59l.34.07,0,.11-.34-.05Z"/><path d="M187.63,150l-.38-.15,0-.1.41.13Z"/><path d="M167.3,36.78l.38.18,0,.09-.41-.14Z"/><path d="M231.75,152.41h-.31a1,1,0,0,1,.17-.14s.09,0,.13,0Z"/><path d="M68.7,155l.33,0,0,.09-.32.11Z"/><path d="M177.43,147.35l-.21.15-.06-.09Z"/></svg>