<svg id="Layer_1" data-name="Layer 1" xmlns="http://www.w3.org/2000/svg" viewBox="0 0 250 182.29"><defs><style>.cls-1{fill:#070707;}</style></defs><title>eready</title><path class="cls-1" d="M169.56,180.24c-1.65,0-3.1-.92-4.7-1.15a5.77,5.77,0,0,0-3.65.13c-2.54-.23-4.87-1.48-7.44-1.52-6.14-.1-12-1.69-18-3a19.69,19.69,0,0,0-5.34-.76c-2.25-1-4.71-.37-7-.9l-4.62-.81a.84.84,0,0,0-1-.15,1.19,1.19,0,0,0-1-.12.14.14,0,0,0-.22.08c-4.39-.8-8.78-1.66-13.24-2l-1,0h-.33a13.91,13.91,0,0,0-3.35,0h-.82l-7.86,0-2.66,0-1.32,0-.69,0a1.36,1.36,0,0,0-1,.18l-1,.06c-4.1.16-8.2.72-12.3.15a3.81,3.81,0,0,0-1.43.11c-1.32.32-1.73-.11-1.31-1.39.14-.46.59-.88-.22-1.14-.43-.14-.28-.43,0-.59.64-.46.57-1.29,1-1.85l.93-.78c1.48-1.26,3.57-1.57,5-2.95-.47-.44-1.1-.13-1.24-.75.19-.47,1,.12,1.1-.83-1.78.19-3.45-.69-5.21-.05l-.66,0a3.15,3.15,0,0,0-2.34,0H66.4l-1.7.06h-1l-7,.6-6.67.71c-5.85.93-11.78,1.42-17.39,3.54l-1,.19-.42.19-1.23.17a14.5,14.5,0,0,1-3.72.17c-.84,0-1.14-.5-1-1.29a32.24,32.24,0,0,1,3.09-5.34L30,157.59c2-1.51,3.73-3.31,6.15-4.46-.89-.46-1.66-.39-2.19-.92a.62.62,0,0,0-.2-.74.85.85,0,0,0-.1-.28.3.3,0,0,0,0-.29h0c.5-.44.83-.88-.21-.92-1.53-.05-3.05,0-4.58-.05a4.45,4.45,0,0,1-2.81-.78c-.35-.31-.74-.89-.17-1,1-.25,1.32-1.3,2-1.66,1.78-.9.88-1.42-.17-2.09l1.57-.65c-2-1.29-3.82-3.22-6.44-1.54l-5.65.8-4.06-.6c.72-1.6,2.14-2.34,3-3.53l.35-.38c1.1-.61,2.19-1.25,3.3-1.82a6.74,6.74,0,0,0,1.93-1.23c.49-.52.6-.81-.12-1.24-1.27-.75-2.47-1.62-3.7-2.45a2.7,2.7,0,0,0-2.82-1.21,19.85,19.85,0,0,0-3.76.48,6.39,6.39,0,0,1-2.54-.16c-1.83-.21-2.82-2.08-4.75-2-.61,0-.35-.68.06-.9a9.42,9.42,0,0,0,2.48-2.21,3.07,3.07,0,0,0-.52-.2c-2.55-.5-2.51-.47-1.46-2.73.28-.59.59-1.72-.79-1.45-.91.17-1-.32-1-.87a9.11,9.11,0,0,1,.3-1.61,12.65,12.65,0,0,1,6.2-5.19c2.37-1,4.77-1.9,7.16-2.85A35.11,35.11,0,0,0,23.34,109a37.46,37.46,0,0,1,4.55-.83c1.67-.11,2.81-.59,3.12-2.41a2,2,0,0,1,.81-1.21,39.88,39.88,0,0,0,4.36-4.09c-.85-.26-1.54-.9-2.5-.72a.75.75,0,0,1-.93-.52c-.15-1.53-1.17-1.14-2.07-1-.23-.09-.29.06-.32.24h-.67l-.53-.07c-.35-.27-.57-.63-1.2-.49a17.19,17.19,0,0,0-4,1.21l-.34,0c-.07-.23.3-.69-.32-.64l-.64-.08c.26-.35.51-.7.78-1,.41-.51.23-.9-.35-.89-2.28,0-4.6-.06-6.71,1-.45.23-1.12.43-1,1.12s.69.91,1.3,1a.35.35,0,0,0,.31.09l0,.33-.35.1a2.76,2.76,0,0,1-2.57-2c-.25-.93-.85-1.16-1.75-1.13a6.91,6.91,0,0,1-5.79-2.37c-2.63-3.11-3.68-6.68-2.37-10.67.53-1.63-.23-3.62,1.35-5,.1-.08.06-.32.06-.49A8.18,8.18,0,0,1,8.2,73c.73-.74,1.45-1.5,2.18-2.26,1-.81,1.93-1.65,2.93-2.45,2.14-1.71,2.35-2.54.87-4.78a1.48,1.48,0,0,1,.06-1.92,40.41,40.41,0,0,1,3.49-4.23c1-1.13.83-2.15-.51-2.74a5.49,5.49,0,0,1-2.7-2.59A3.72,3.72,0,0,1,14.63,50c.76,0,.51.66.72,1,.34.55.52,1.24,1.33,1.42a4.42,4.42,0,0,0-1.39-3,4.94,4.94,0,0,1,.62-2.55A78.78,78.78,0,0,1,21,39l2.33-2.69L27.71,32l4.59-3a17.5,17.5,0,0,0-4.77.59c-3.65,1-7.09,2.6-10.76,3.6-1.58.42-1.19-.42-1.24-1.18l1.14-1a2,2,0,0,0,.74-.26c1.88-1.8,3.74-3.62,5.6-5.43l.34-.3c.68-.54,1.44-1,2.12-1.54,3.82-3.13,7.14-6.94,11.88-8.84C41.58,13.78,45.86,13.11,50,12l7.38-1.61,6-1.35A112.18,112.18,0,0,1,76.94,7.88c4.44-.08,8.78-.75,13.15-1.26l2.62-.3L103.83,5l6.29-.42,8.06-.26,5.29-.06h6.68c1.19.35,2.48-.3,3.64.33-5.92,1-11.94.53-17.88,1.33,9.66.59,19.3.08,29.18,0-.81-.41-1.64.12-2.21-.74,1.67-.29,3.07-1,4.65-1.16l.89,0,.4.13a1.9,1.9,0,0,0,1.35,0,63.25,63.25,0,0,0,7,.66,32.7,32.7,0,0,1,7.74,1.78l.62.35c-.27.78-.91.15-1.34.34l-.66-.2-.66-.08a6.27,6.27,0,0,0-2.26-.44.49.49,0,0,0-.61-.08l-.7,0c-1-1-2.44-.4-3.62-.91.69,1.13,1.77,1.21,2.86,1.26l4.33.68.36,0,.63.21,1.27.18c.09.16.21.26.4.17l4.67,1.1c1.56.91,3.57.49,5,1.68a3.89,3.89,0,0,1-1.87.28c-4.06-.88-8.22-.92-12.3-1.55-1.82-.28-3.65-.5-5.48-.74,1.46.91,3.11,1,4.69,1.37,4.11.91,8.39.65,12.46,1.72,2.9.76,5.77,1.52,8.81,1.24.23.48.64.43,1.06.35l7.22.39a5,5,0,0,0,3.76.41,7.46,7.46,0,0,1,3.36.13l.09.06c0,.13.07.18.19.17.64.3,1.3.56,1.92.89,2.25,1.21,2.26,1.55.13,2.85a1.08,1.08,0,0,0,.94.14c.77.77,1.9,1.31,1.79,2.69a2.54,2.54,0,0,1-1.75-.52c-2.57-1.44-5.22-2.59-8.26-2-.21,0-2-.65-1,1,.15.25-.28.55-.67.35s-.42-.68-1.11-.52c.85.47-.62,1.51.67,1.86,2,.55,3.92,1.58,6.11,1.89,1.82.25,3.91.28,5.33,1.88.15,1.8-.81,2.4-2.45,2.34-.65,0-1.3,0-2,.08-2.14-1.07-4.43-.72-6.68-.73-1,0-2.47-.7-2.75.2-.34,1.09-.9.67-1.42.8-.25.06-.72-.12-.73.17-.08,1.83-1.32.75-2,.74-1,0-2-.28-3-.22-2.56.16-5.13-.47-7.69.54-.83.33-1.77.21-2.16,1.24-2.54-.42-5,.32-7.82.42,1.82,1.34,3.71.66,5.19,1.37a39.82,39.82,0,0,0,4.3,2.19c-1,.18-1.39,1.09-2.24.81-1.13-.61-2.28-.15-3.45,0l2.71.35c.07.07.19.15.19.22-.05,1.45-1.64,1-2.22,1.78h0l-.23.1.26.22,0,0,.18.57.06.12c1.18,2.36-1.25,1.88-2.44,2.68L170.53,43l6.34,2.11c3.64,1.66,7.55,2.62,11.18,4.33a4,4,0,0,0,2.17.71,42.16,42.16,0,0,0,6,1.64c4.57,2.08,9.37,3.56,14,5.4.58.3,1.17.6,1.75.88,3.59,1.74,7.23,3.42,9,7.38,1,1.86.46,4.4,2.65,5.69l1,1c.82,2.4.22,3.51-2.17,4.41a14.89,14.89,0,0,1-4.84.53,32.43,32.43,0,0,1,6,7.78.93.93,0,0,0,.6.66l2.64,2.8-.33.28c.55,4,.42,3.23-2.56,4.31h-.32L221,92.76l-.35-.18c-.78-.15-1.49-.7-2.35-.46-.6-.11-1.11,0-1.33.66-.05,2,1.44,3.12,2.66,4.37-.61-.13-.79.66-1.34.63a1.89,1.89,0,0,0-1.32.38,20.3,20.3,0,0,0-6.68.63.24.24,0,0,0-.28,0l-.73-.19-.3-.13a23,23,0,0,0-9.53-2.72c.78.86,1.29,1.42,1.8,2s1,1.17,1.43,1.7c-.28.6-1-.06-1.12.59a.84.84,0,0,0,.63.88c.7.3.83,1.14,1.45,1.49l.08.05.25.26c.3.7,1,1,1.55,1.4a40.69,40.69,0,0,1,8.19,8c.74,1.29,2.2,1.85,3.06,3a.66.66,0,0,0,0,.69c-.07.2.06.29.21.36a7.34,7.34,0,0,0,.83,2c.6.72,1.44,1.37,2.5.6.49.29-.11,1.18.73,1.29a5.37,5.37,0,0,1,2.6,1.44c.37,1.23.91,2.11,2.34,1,.17.81.07,1.5.88,1.95a60.42,60.42,0,0,1,5.61,3.64,14.49,14.49,0,0,1,4.23,4.31c1.34,2.17,2.39,4.77,5.39,5.33-.56.81-.17,1.33.52,1.77a9.6,9.6,0,0,0,2.76,2.45c.49.29.95.43.91,1-.06.94-.75.22-1.14.36-.19.06-.45,0-.55.27.22.43,1,.82.61,1.31s-1-.1-1.46-.22a31.11,31.11,0,0,0-5.78-.41c-1.16,0-1.12.49-.62,1.25-.5.4,0,.71.14,1,1.4,2.05,3.52,2.89,5.81,3.43l3.74,1.63v.36l-2.33-.07c-1.15-.33-2.27.58-3.64-.11.87,1.08,1.28,2.25,2.65,2.37a.49.49,0,0,0,.65-.06l.14-.05,0-.15.48-.08c.13-.05.34-.08.36-.16.08-.24-.08-.38-.3-.45.37-.63.62,0,.91.09.26.6.51.2.76,0,.64.78.24,1.14-.53,1.34l-2.51.68a1.51,1.51,0,0,1-1.59.62c-2.56-.23-5.12-.5-7.68-.61-.91-.05-2.15,0-1.43,1.62l-2,1.72c-1.65.23-3.21-1-5-.08-.7.37-2-.37-3-.6a34.28,34.28,0,0,0-5.31-1.1,12.72,12.72,0,0,0-4.68-.93c-.88-.81-1.77,0-2.66,0l-1-.09c-.68-.47-1.15-.38-1.33.5l-.6-.16c-.35-2.18-1.2.3-1.73-.18l-1-.8c.72-.89-.34-.87-.61-.94a7.06,7.06,0,0,0-1.78,0,3.63,3.63,0,0,0-2.52-.24c-.57.1.27.3.21.56-.61,0-.67.22-.27.64-1.2,1-1-.38-1.28-.78-.17-.22,0-.74-.57-.57-.24.08-.66.18-.68.32-.1.6.49.16.66.36.35.4-.07.7-.17,1l-1,.08-1.65-.4c-.2-.89.25-1.34,1.07-1.65-.68.13-2-1.5-1.79.77,0,.4-.28.34-.57.3-.48-.06-1-.26-1.41.14l0,.13h-1l-.33-.14c-.12-.24-.24-.21-.36,0l0,.13-2.34,0-.64-.15c-.14-.53-.41-.91-1-.84-1.18-.51-2.6-.08-3.68-1-1.74-.66-3.55-.29-5.34-.45a14.67,14.67,0,0,0,4.34,2.15c.35.32.58-.11.88-.15l.41,0a12.81,12.81,0,0,1,3.41,1.09c.35,1.11,1.37,1.14,2.26,1.39,0,.71.42,1,1,1a.41.41,0,0,0,.12.3c-.05.22.07.29.25.3l0,0c.08.51.89.68.64,1.35-.35.41,0,.69.19,1-.8,1.55-1.49-1.15-2.06-.11-.47.87-.8,1.61-1.94,1.42h-.17l-.19-.3v-.23l-.23.19-.85,0-.42-.34v0c0-.79-.34-.49-.68-.22l-.61-.13c-.79-.63-1.39.3-2.13.3l1.08.32a.75.75,0,0,0,.69.42l.61.26,1,.43c.35.43.69.35,1,0l.35,0a17.91,17.91,0,0,1,4.6,1.39c1.92,1,4.13,1.66,5.74,3.34a2.46,2.46,0,0,1,.81,2c-.1.9-.73.15-1.12.22s-1,.74-1.39-.17c-.16-.34-.62-.22-.61.26,0,.65-.13.36-.57.3a8.47,8.47,0,0,1-2.28-.49c-.6-.24-1.35-.85-2.18-.52h-.33c-.48-.58-1,.4-1.47,0-.12-.23-.28-.35-.54-.19s-.07.83-.68.63c-1.08-2.29-3.14-1.8-5-1.74-.41,1.27.36,1.78,1.38,2.17a19,19,0,0,0,3.39.79,3.69,3.69,0,0,1,1.62,2.45c.18.62.56,2-.22,2-1.32,0-.94.75-1.26,1.36-.23.44-.41,2-1.86.74-.87-.74-2.45-.68-3.73-.86-.3-.05-.54.75-1.09.26a4.84,4.84,0,0,0-3.22-.88c-1.71-.6-2.28-.35-2.85,1.37-.16.51-.31.49-.8.4a2.28,2.28,0,0,0-2.66,1.16C170.18,179.43,169.18,179.49,169.56,180.24ZM134.9,8c-.8-1.13-2-1.19-3.21-1.11A14.54,14.54,0,0,0,129,7c-2.07.53-4.33-.19-6.29,1-.21,0-.51,0-.5.32,0,.62.58.41.89.4,3.65-.13,7.27.53,10.93.32,1.1-.06,2,0,2.39-1.26C135.9,7.55,135.47,8.22,134.9,8Zm24.52,138c-2.48-1.8-5-1.19-7.48-.79-.31.05-.86.23-.91.14-1-1.91-2.45.19-3.58-.42C151.36,145.55,155.18,147.45,159.42,146ZM91.1,8.5c-1.77-.35-3.06-.87-4.51.15C88.1,9.39,89.35,8.74,91.1,8.5ZM220.81,91.29c2,1.21,2.19,1.18,3.21-.39Z"/></svg>