<svg id="Layer_1" data-name="Layer 1" xmlns="http://www.w3.org/2000/svg" viewBox="0 0 250 250"><title>eready</title><path d="M74.81,66C55.16,63.21,18.6,73.05,18.6,104.22c0,15.59,7.08,36.38,43.45,34,18.9,0,33.07-3.3,21.26,37.32-7.08,26-17,66.13,36.37,71.33,9.72.94,23-3.64,30.7-9.37,5.88-4.4,10.35-10.4,14-16.7s4.75-15.25,11.92-19c7.71-4.07,18.05-1.89,26-.25,16.06,3.31,31.18-6.61,28.82-20.78.24-14.17-19.37-36.38-22.2-41.57s-.48-29.29,9.92-55.27,3.3-74.63-39.68-80.3S118.26,32.9,109.29,54.16C105,60.3,101.73,69.74,74.81,66Z"/><ellipse cx="51.94" cy="166.68" rx="25.99" ry="21.08" transform="translate(-96.41 74.63) rotate(-40.87)"/><ellipse cx="186.37" cy="217.86" rx="15.53" ry="12.6" transform="translate(-99.46 195.59) rotate(-45)"/></svg>