<svg id="Layer_1" data-name="Layer 1" xmlns="http://www.w3.org/2000/svg" viewBox="0 0 250 215"><title>eready</title><path d="M247,74.56c-4.12,16.52-16.84,24.7-30.84,31.39-8.16,3.9-16.75,6.9-25,10.65A45,45,0,0,0,180.9,123c-5,4.2-5.66,9.14-2.08,14.56a43.9,43.9,0,0,0,7,7.72c3.57,3.32,7.55,6.2,11.1,9.54a12.59,12.59,0,0,1,3.78,12.8c-4.75,17.81-14.27,32.36-31,40.9-14.52,7.4-29.56,3.41-39.23-9.7-2.4-3.25-4.22-6.94-6.3-10.42-2.38-4-4.51-8.16-7.2-11.92-5.49-7.67-12.84-9.85-21.78-6.9a45.36,45.36,0,0,0-22.25,16.09c-1.76,2.31-3.57,4.59-5.37,6.86-16.42,20.7-38.63,18.54-54.74,1.95C2.23,183.65.12,168.89,6.92,154.78a106.72,106.72,0,0,1,30.8-38.68c3.85-3,7.76-5.95,11.43-9.16,6.82-6,8.51-13.16,4.68-21.37-2.35-5-5.41-9.73-8.22-14.55-4-6.85-5.49-13.9-2.62-21.66,3.5-9.48,9.92-14.43,20.28-14.46,6.85,0,13.7.9,20.55.86A147.75,147.75,0,0,0,105,34.47c7.75-1.17,13.71-5.81,18.79-11.77,4.28-5,8.53-10.33,13.72-14.28,12.37-9.41,25.75-6.83,34.61,6,6.25,9,8.95,19.3,10,30.08.17,1.74.22,3.49.38,5.22.44,4.61,2.71,6.74,7.21,5.57,5.81-1.5,11.76-3.15,17-5.95,11.56-6.14,21.69-2.85,31.84,3.19,5,3,7,7.73,8.49,13Z"/></svg>