<svg id="Layer_1" data-name="Layer 1" xmlns="http://www.w3.org/2000/svg" viewBox="0 0 250 215"><title>eready</title><path d="M9.45,178.35c-1.51-1.8-12.29-12.87-2.15-29.46s22.24-20.68,4.49-89.36c-4.2-16.25,1.13-37,13.81-48C46-6.29,79.51-3.3,94.9,19.54c8.83,13.09,28.28,18.53,42.93,18.78a96,96,0,0,0,22.47-2.49c8.95-2,17.94-7.11,27-7.94C210.57,25.75,234,39,242.31,61c2.36,6.23,4.55,12.83,4.68,19.56.49,26.45-16,43.23-38,54.6-5.41,2.8-11,5.28-16.65,7.56-6.68,2.69-14.09,4.33-20.57,7.38-13.12,6.18-18.93,20.32-26.68,31.62-8.28,12.08-20.57,20.1-35.71,18.79-5.34-.46-11.33-1.91-15.87-4.83C88,192.05,83.66,186.79,78,183.23c-6.22-3.89-13.3-6.55-20.71-6.63-10-.2-24.19,3.7-30,4.88S12.2,181.65,9.45,178.35Z"/></svg>