<svg id="Layer_1" data-name="Layer 1" xmlns="http://www.w3.org/2000/svg" viewBox="0 0 250 195.12"><title>eready</title><path d="M56.66,188.05v6.64c-2.16.39-2.65-.72-3-4-.82-7.27-2-14.51-3-21.76l-.86,0v26l-.88,0a16.37,16.37,0,0,1-.27-2.09c-.05-8.75-.07-17.51-.16-26.27a14.31,14.31,0,0,0-.68-3l-1,.11c-.1,1.6-.21,3.19-.35,5.4-3.24-1.92-1.11-5.35-3.1-7.33v16.37H42.5V160.11l-2.33-.63c-1.84-4-3.46-7.49-5.17-11.19h7.12c-.24-2.34-.45-4.37-.67-6.53H39.78c-1.47-2.62-2.77-4.84-4-7.13a14.36,14.36,0,0,1-.77-2.71c-.63.09-1.49.16-2.33.33-2.52.51-5,1.4-7.54,1.46-2,0-3.27-1.37-3.64-3.75-.71-4.59-.32-8.78,2.32-12.33a21.1,21.1,0,0,1-1.79-1.6,28,28,0,0,1-3.61-4.27,13.49,13.49,0,0,1-1.59-4.7,14.72,14.72,0,0,0-3-5.3c-2.24-2.58-5.31-3.7-8.14-5.27S2.41,92,5.91,89.07c.73-.6,1.07-1.67,1.8-1.92,1.17-.22,2.67-.07,3.47-.74,4.12-3.44,4.06-3.52,2.68-6.92l-1.56.84-.37-.43,1.67-1.43c-1.94-3.11-3.92-6-5.6-9.08-1.22-2.23.83-5.93,2.9-7.68s3.39-4.28,5.06-6.46a12.92,12.92,0,0,1,1.85-2.17c1-.86,2.23-1.55,3.6-2.48.59,4.16,4.58,2.32,6.53,4l1.28-1.47A19.75,19.75,0,0,0,28.86,49a2.47,2.47,0,0,0-2.05-1c-2.58.23-5.14.77-7.72,1.08-3.94.47-6.84-1.79-9.57-4.11-.7-.59-.65-2.06-1.07-3.58L4.31,40.5A23.18,23.18,0,0,0,7,39c.43-.33,1-1,.9-1.35s-.79-.87-1.3-1c-1.17-.3-2.39-.42-3.62-.61.11-.33.12-.53.23-.63,1.12-1.12,3.93,1.18,4-1.88A29.42,29.42,0,0,0,6.78,29L10.71,23h4.7l-3.89-5.67,6.8,4.92,1-4.08c7.32,2,16.1,11.6,15.89,18.12-.12,3.62,2.32,5,4.51,6.49,1.51,1,3.73,1,5.66,1.23,3.77.46,7.54.78,11.49,1.17.61-2.3-1.08-3.49-3-4.79A76.14,76.14,0,0,1,44.68,33l8.37,1.27c.7-4,.25-5.14-2.81-7.12-.29-.18-.73-.34-.82-.61-1.39-4.06-5.12-4.91-8.5-6.25-3.05-1.22-6.1-2.46-9.42-3.8,2.39-1.64,3.31-1.59,6,.1a29.76,29.76,0,0,0,17,4.39A4.68,4.68,0,0,0,56,20.77c2.11-.82,5-1.47,4.8-4.08-.09-1.4-2.4-2.8-3.91-3.93-1.15-.86-2.62-1.29-3.85-2.18,4.79.14,8.48,4.94,13.92,3.17C67,8.2,60.41,9.31,58.21,5a23,23,0,0,1,4.33,1.19C64,6.9,65.23,8.08,66.63,9s2.92,2.18,4.54,2.51c1.44.29,3.09-.5,4.65-.82-.51-1.85,2-3.62,0-5.61a44.46,44.46,0,0,1-3.94-5c2.11-1,3.21-.25,4,1,1.31,2,2.4,4.05,3.78,5.95a11.27,11.27,0,0,0,3.11,3c1.9,1.19,4,2.07,6.26,3.21.45-5.72-1.51-11-2.94-16.45,4.72,6.76,5.47,15.73,12.47,21.14.4-.65,1-1.72,1.82-3.05,3.39,2.89,2.09,9.06,7.67,10.14.09-1.29.19-2.56.34-4.62A18.26,18.26,0,0,1,110,22.58c2,4.34,3.93,8.73,6,13.05,1.55,3.24,5.12,3.95,7.79,5.77.27.18,1.21-.52,1.78-.89a56.9,56.9,0,0,1,7.17-4.11c-1.22,3.53-5.26,3.4-7.37,5.73,3.64,3.27,7.76,2.36,11.56-2.54-2-3-4.3-6-2.34-10L120.86,33.5l-.15-.38L125,30.74c-7.64-5.28-10.7-12.3-8.19-21.33l.62.74.74.91C120.7,7.83,123.56,5,122.75.43l.71-.19,2.3,3.49C128,.3,131.37.49,134.85.56l.46-2.8.46,0a22,22,0,0,0,.64,4.92c.86,2.35,2.61,1.32,4.33.41.38,1.83.67,3.53,1.09,5.19s.93,3.11,1.63,5.38c1.14-1.62,1.88-2.65,3-4.29l-1.46,10.89,5-1.64.11-.6-3.57-1.51v-.44c4.11-.51,8.22-1.09,12.34-1.48a6.17,6.17,0,0,1,3.58.58c3.07,1.87,6.21.57,9.33.66a12.25,12.25,0,0,1,6,1.41c3.77,2.42,7.12,5.48,8.64,9.92A9.77,9.77,0,0,1,187,31c-.24,3.15,1,4.6,4.26,4.62.34,0,.69,0,1.22-.07-.68-1.75-3.92-2.84-1.48-5.19,1.83-1.76,3.93-2.3,6.35-.4,2-3.08,5.16-3.71,8.48-3.65a8,8,0,0,1,3.17.78c2.59,1.23,4.34,1,5.82-1.47a33.52,33.52,0,0,0,3.38-6.78c1-3.09,1.3-6.28-2.68-8.31,3.15-.35,5.76-1.27,7.4-4.64l-3.64-2.25.07-.56c1.81.15,3.62.32,5.43.42,1.53.07,3.24.49,3.54-1.93A2,2,0,0,1,229.89.49c3.33.3,6.88-.35,9.78,2.08,2,1.71,4.16,3.32,6.21,5a1.78,1.78,0,0,1,.63,1c.2,1.94.7,4,.39,5.82a82.25,82.25,0,0,1-2.63,10.67,51.44,51.44,0,0,1-3,6.62,3,3,0,0,1-1,1.3c-2.1,1.25-4.23,2.46-6.4,3.59a7.61,7.61,0,0,1-2.88,1c-2.14.13-2.58.78-2,3a92.87,92.87,0,0,1,2.27,12.81c.2,1.86.42,4.29-2.17,5.3-.19.07-.27.62-.28.94-.06,5.5-3.24,9.54-6.47,13.46a24.23,24.23,0,0,0-5.46,15c-.3,6.24-.92,12.6-5.11,17.83-.32.4-.53,1.18-.88,1.24-4,.68-3.21,4-3.71,6.61s-.72,5-1.09,7.74l-1.69-1.39c-.66,3.15-1.25,6-1.92,9.23l-1.05-3.16c-1.31,2.17-2.35,4-3.45,5.7s-2,3.33-4.21,1.18c-.43-.41-1.85.23-2.82.86,5.46,3.31,10.52,6.69,17.43,5.78,4.4-.58,7.34-2.11,9.64-5.86,1.81-2.94,4.33-5.45,6.65-8.3l-3.28-2.17a15.5,15.5,0,0,0,4.07-8c.74-4.47,5.66-9.67,10.86-9.38,2.62.14,5.05,3.07,5.47,6.52a10.66,10.66,0,0,1,0,3.14c-.73,4.14-2.82,8.18,0,12.67a7.25,7.25,0,0,1-1-.27l-3.6-3c-.78,1.43-1.94,2.77-2.29,4.3-1,4.6-1.75,9.28-2.64,13.91a13.33,13.33,0,0,1-.92,2.27c.47-4.16.83-8.33,1.46-12.47s.75-4.24-3.42-5.14c-.17-.77-.34-1.57-.71-3.3l-13.76,13.85,9.24,1.13c.59-1.39,1.14-2.71,1.69-4l.69.23c-.3,1.51-.59,3-.87,4.45l5.77,5.19c.19,1.81.29,3.63.56,5.42,1.17,7.71-7.17,17.38-14.81,16.81-4.37-.33-8.72-.84-13.09-1a49.12,49.12,0,0,0-6.52.51c.28,1.88.5,3.31.71,4.74l-.55.19c-.53-1-1.07-2.07-1.68-3.28-2.33,1.7-4.74,3.38-7,5.19a2.32,2.32,0,0,0-.48,1.83c.64,6,1.35,12,2,18a4.67,4.67,0,0,1-.14,1.1l-.66,0c-.54-3.2-1.16-6.39-1.6-9.6s-.71-6.58-1.09-10.13L179,178.79a20.36,20.36,0,0,1,.49,16.11c-2.26.63-2.76-.8-1.91-2.36,2.52-4.61.44-8.82-.54-13.32-2.32.39-4.75.26-6.49,1.29-1.21.72-1.83,3-2.08,4.65-.41,2.76-.3,5.59-.44,8.38a1.62,1.62,0,0,1-.88,1.36c-.1-1.22-.21-2.43-.34-4-2.72.48-.82,3.17-2.62,4.31V180.92l-4.67-.23v14.25h-1c0-2.36,0-4.72,0-7.09,0-1.75.12-3.5,0-5.25,0-.62-.59-1.22-.9-1.82a15.78,15.78,0,0,0-1,1.79,4.6,4.6,0,0,0-.18,1.25l-.82.25-1.2-3.55-3.91-.53v14.93c-3-4.38-2.92-9.33-3-14.24l-.85,0-.81,4.11-.55-.83c-4.76,2.47-2.81,7.11-3.91,10.91-.11-1.85-.23-3.71-.34-5.59l-4.24,2.6-1.05-.86c1.07-2.59,2.12-5.19,3.23-7.76.31-.72.84-1.34,1.19-2,1.48-3,.83-4.8-2.11-6.11-1.11-.5-2.21-1-3.61-1.68V195l-.53.12a7.28,7.28,0,0,1-.46-1.65c-.18-5.78-.42-11.56-.42-17.35,0-2.45-.18-4.45-2.88-5.42-.94-.34-1.69-1.21-3.16-2.32.63,9.21,1.22,17.86,1.81,26.51l-1.11.08q-1-12.14-1.93-24.24c-2.69-.59-2.86-.42-2.69,2.26q.7,10.62,1.35,21.24c0,.21-.16.44-.87.69-.57-7.4-1.14-14.81-1.71-22.19-3,3.27-3,3.27-3,7.49,0,4.38,0,8.76-.19,13.14,0,.65-.72,1.27-1.11,1.91l-.82-.37V170.2a5.15,5.15,0,0,0-5.8,0,2.73,2.73,0,0,0-1.37,3.28,50,50,0,0,1,.69,7.83c.19,5.65-3.61,9.27-6.94,13.07a3.58,3.58,0,0,1-2.41.62c-7.11,0-14.22.23-21.31-.11-1.85-.09-3.63-1.88-5.78-3.07l-1.36.64c2.05-2.42.27-5,.42-7.39.21-3.44,0-6.91-.08-10.37,0-.36-.59-.7-.91-1.05l1.83-2.82-4-4.32v4.87l-.74.06-1-7.29L62.48,167l-.56-.69,1.39-1.73c.92-1.15,2.15-2.17,2.68-3.48A65.26,65.26,0,0,0,68,154c-.88.36-2,.48-2.59,1.11-1.79,1.9-3.23,4.13-5.08,6-1,1-2.62,1.56-4,2.31l-.41-.64L57,160.41c-1.24.57-2.29.72-2.45,1.18-.89,2.49-2.21,4.81-1.63,7.73,1.13,5.74,1.9,11.55,2.87,17.32A4.83,4.83,0,0,0,56.66,188.05ZM50,137.36c-.11,1.37-.18,2.49-.28,3.61s-.3,2.43-.35,3.65c-.14,3.43,0,3.58,3.36,3.61a40.35,40.35,0,0,1,5.5,0c2.69.39,3.21-1.83,3.37-3.25a10.62,10.62,0,0,0-1.08-6c-.72-1.32-2.65-2.34-4.23-2.73-1.83-.44-2.18-1-1.55-2.64.15-.39-.24-1-.38-1.49-.47.16-1.22.22-1.34.52a15.94,15.94,0,0,0-.65,2.85,14.09,14.09,0,0,0-.13,1.53Zm-4.12,3.58c-2.66,2.18-1.74,4.72-1.84,7.25l4-.23V141.9l-1,3.66-.45,0ZM180.67,67V64l-4,1.85.18.51Z"/></svg>