<svg id="Layer_1" data-name="Layer 1" xmlns="http://www.w3.org/2000/svg" viewBox="0 0 250 250"><title>eready</title><path d="M44.92,199c-2.32-6.69,1.06-14.34,2.13-21.08,1.24-7.77,2.42-15.56,3.25-23.39,1.29-12.07,3.9-28.68-2.32-39.87C37.67,96.06-6.46,38.32,36.84,17.28c9.35-4.54,25.82-2,35.19,1.16C88.63,24,101.85,31.05,119.83,26c10.66-3,20.42-8.49,30.43-13.21,9.44-4.45,19.73-8,30.11-9.28,8.9-1.12,18.21-.34,26.3,3.53,15.06,7.19,23.43,22.71,25,38.88,1.11,11.82-2,23.61-6.69,34.38S211.5,99.57,207.3,110.59c-5.28,13.85-3.35,29.26,2.07,42.72,7.93,19.69,17,37.07,10.33,58.69-5.88,18.9-21.8,30.85-41,34.19-14.44,2.51-31.59-.92-44.19-8.45-11.61-6.94-21.9-16.14-34.26-21.82-14.13-6.48-28.6-3.53-43.15-7.29-4-1-8.07-2.94-10.49-6.34A13.36,13.36,0,0,1,44.92,199Z"/></svg>