<svg id="Layer_1" data-name="Layer 1" xmlns="http://www.w3.org/2000/svg" viewBox="0 0 250 204.89"><title>eready</title><path d="M124.52,180.2a10.08,10.08,0,0,1-6.8,3.09c-1.63.14-3,2.8-5.06,4.82l7.55-2.11.32.63c-.58.34-1.15.69-1.73,1a13.19,13.19,0,0,0-3.1,1.7c-3.4,3.39-3.56,3.44-6.29.31l-4.23,1.49a13.8,13.8,0,0,1-1.88,2.63c-1.26,1.08-2.74,1.91-4,3-.21.18.11,1,.3,2.33L98,197.78,95.46,203l-1.07-.5L95,200.9a4.11,4.11,0,0,0-1.05.41c-1.89,1.51-3.34,2.2-4.06-1.14a4.73,4.73,0,0,0-2.56-2.82c-3.77-1.56-1.85-4.31-1.64-6.7,0-.36.54-.66.63-1,.37-1.59,1.29-4.38.88-4.6-1.9-1-4.19-1.31-6.81-2,.76,4.12-2.72,3.72-4,5.37-.5.63-.94,1.31-1.4,2l.25,1.34-1.43-1.23c-1.3,1.54-.12,4.67-3.73,5l1.46-1.9a3.62,3.62,0,0,0-.85.22c-2.09,1.39-4.16,3.13-5.08-1.17a3.93,3.93,0,0,0-2.18-2.42c-4-1.45-2.6-4.58-1.72-6.72a84.63,84.63,0,0,0,5.36-17c.53-2.82,2.08-5.46,3.29-8.49-5.15-2-7.94,2-11.24,4.61-.59-2.83-.59-2.83,3.1-5.89L57.5,159a21,21,0,0,1,12.38-6.94c2.9-.32,4.1-2.66,5.21-4.93,1.26-2.56,2.37-5.2,3.76-8.28l-3.91-3.62c-.49,1.91-3.65,1.55-3.18,4.42l-1.37-.44L68,144.38l-1-.44.47-1.64c-1,.47-1.9,1.24-2.87,1.27-.73,0-1.64-.75-2.21-1.4-.93-1.07-1.44-3.08-2.48-3.36-2.7-.74-2.14-2.56-2.17-4.33,0-.59,0-1.18,0-1l-6-2.45-3.49,1.27a16.41,16.41,0,0,1-2,2.61c-1.26,1.08-2.71,1.93-4,3-.21.17.11,1,.31,2.31L41,138.94l-2.57,5.19-1-.47.53-1.83c-2.29,1.74-4.38,3.24-5.33-1a4,4,0,0,0-2.21-2.4c-3.91-1.43-2.5-4.54-1.63-6.57a94.09,94.09,0,0,0,5.44-17.19c.72-3.3,2.5-6.36,3.72-9.33-4.74,0-8.63,2.06-11.93,5.76l-.91-4.58,5.1-5-.48-.55-5.37,1A56.93,56.93,0,0,1,23.27,95c-.11-3.61-1-4.43-4.63-3.86a25.74,25.74,0,0,1-5.44.54c-3.83-.21-5.24-1-9.4-4.77l4.79-.58c1.51-4.73,7.36-2.82,10.3-6.75A18.42,18.42,0,0,1,5.82,76.11C5.64,76,6,75.09,6,74.8l-3.23.83-.31-.69c.32-.45.54-1.15,1-1.32C7.53,72,11.57,70.34,15.72,69c3.34-1,6.86-1.49,10.24-2.45a4.54,4.54,0,0,0,2.29-2.15,37.58,37.58,0,0,0,2.26-5.25c1.39-3.69,4.55-3.56,7.59-3.47.68,0,1.32,1,2.22,1.72,3.23-3.49,8.6-4.63,10.14-9.73l5.7,4.51c.47-2.31.86-4.42,1.4-6.5,0-.19,1-.14,1.65-.2l-.73,3.09L63.39,48l1.42,4.14,5.35-10.33-.61-.1c4.65-3.86,6.67-9.85,10-14.87S86.19,16.27,90,11.36C92.62,8,96.1,5.18,99.26,2.18c.36-.35,1-.34,1.53-.48l-.24,5.44c6.15-.82,6.15-.82,7.46,3.25-1.9.71-3.53,1.65-2.49,4.27.17.45-1.13,1.47-2.18,2.76l2.38-.75c1.06,4.12-2.41,6.48-3.65,9.65a24.43,24.43,0,0,0-.74,2.7l.74.34,3.42-3.77.76.53L104,30.28l.51.53c1.72-1.94,3.44-3.87,5.15-5.81l.56.29a10.34,10.34,0,0,1-1,2.9,10.75,10.75,0,0,1-2.42,1.91l.69,1,8.31-4.9-3.2,5.1.65.54q5.46-5.82,10.91-11.65l.5.42-1.32,2.81,7.78-3.74.41.64-2.41,2.41,7.74-1.17.25.71-2.44,1.42c2.44,3.76-.76,7.14-.4,10.94l3.44-.28-1.28,1.75L148,35c.79,4.52-3.4,2.74-5.54,4.31l5.85.24-.93,2c2.32,1.23,1.26,3,.46,5,2.54,1.33,7.62-1.56,7.53,4.24-1.24.88-3.81,1-2.32,3.88.22.43-1.17,1.71-2.18,3.09l2.17-.56c1.55,3.41-1.69,5.43-2.68,8.35l5.2-1.72-1.54,2.72.74.54c1.43-2,3-4,4.27-6.07a59.77,59.77,0,0,1,14.39-16.83,6.63,6.63,0,0,1,1.51-.64c.07,1.89.14,3.6.21,5.59,1.17-.34,1.92-.54,2.64-.79a3.61,3.61,0,0,1,4.6,2.44,2.4,2.4,0,0,1,0,1.16c-3.56.85-1.94,4.14-2.95,6.65,3-.68,6.06-.81,6.58,3.64-2.43.8-3.5,2.08-1.57,4.77.63.88-.15,2.78-.33,4.73A19.21,19.21,0,0,0,187.63,70c.91-.69,1.52-1.76,2.74-2.34l-3.18,5.24.66.57L198.64,62l.59.46L197.85,65l7.64-3.67L206,62l-2.3,2.39,7.76-.87.11.62-1.74.83c-.12,3.13-.22,5.82-.34,8.8L216,74,213,75.61c-.79,1.67,2.33,2.08,9,1.2.19,0,.39,0,.65,0-.28,1-.24,2.61-.89,3-1.23.71-2.85.73-4.24,1.45l4.49.13c.23,1,.41,1.79.74,3.22l-1.47,1,4.94,1.63c.31,3.09-2,3.44-4.41,3.87l4.54.7L225,93.63l2,.37-1.75,1.32,6.3,4.83c4.38-.23,8.72-.62,13-.58,1,0,3,2,2.89,2.24-.81,1.62-1,4.12-3.58,4.12-2.93,0-5.71,0-7.1,3.34-.09.22-1.71-.2-2.95-.37-1.19,2.34-2,2.59-4.14.61-2.17,5.25-7.51,4.54-11.83,6.26l1.43,1.31-10.85,2a6.08,6.08,0,0,1,.54,2.15,19.37,19.37,0,0,1-.92,2.72,8.39,8.39,0,0,0-.15,1.7l-11.42,1.79,9.84,2-1.46,1.43,1.43.54-7.16.74,0,.51,3.23.31c-1.27,4-5.61,2.16-8.21,4.46l4,.3c-1.14,1.32-4,1.31-2.12,4,.45.63-.93,2.59-1.65,4.41l-11.1,1.71c3.52.59,7.52-.58,9.77,3.93l-6.63.9v.45l3.14.34c-1.41,4.28-5.44,2.67-8.26,3.74-.74.28-1.49.52-2.47.86l1.2,1.56L168,161.48c4.48.05,8.55.88,11.68,4.66l-2.8,1.34.65-1.65c-.2-.08-.49-.26-.53-.21-5.29,5.77-12.51,5.84-19.43,6.17-4.15.2-6.47,2.38-8.54,5.32-1.93,2.75-4.73,4.25-7.61,5.64-2.28,1.1-4.63,2.06-7,3-1.4.55-2.87.9-4.65,1.45l.21-5.39-2.49.17-.11-.43,6.85-2.13-.2-.81a48.65,48.65,0,0,1-4.8,1.29,46.27,46.27,0,0,1-4.86.3l3-3.4-.53-.73-6.71,1.52c-.17,1.15-.33,2.22-.44,2.91Z"/></svg>