<svg id="Layer_1" data-name="Layer 1" xmlns="http://www.w3.org/2000/svg" viewBox="0 0 250 250"><defs><style>.cls-1{fill:#e1e2e1;}.cls-2{fill:#feda00;}</style></defs><title>image masking shape</title><path class="cls-1" d="M110.46,208.1c-.74,1.44-1.56,2.84-2.2,4.32-.54,1.26-1,1.16-1.78,0l1.2-.38c-.06-.19-.08-.4-.13-.41-.38-.09-.91-.33-1.13-.16-1.37,1.11-2.67,2.31-4.12,3.59-.66-.81-1.07-1.31-1.49-1.81l1.5-.54-.1-.52-2,.58-1.62.53.64-.3h-.13l.13-.15a.57.57,0,0,0,0,.13l-.61.35-.59-1.67,4.25-3.48-2.87-1.27.12-.49,3,1.09,2.42-1.67,0,0,0,.17.15,0,.77.91.39.41.34-1,1.64.31,1.06-.87c-1.25-1.17-2-.49-2.66.6l-.8.56-.78-.92c.23-.39,1.42-.24.61-1.2l2.26-.59,2.33.89.17-.85H107.9c-.49-1.8,1-2.24,1.6-3.3l.58.26-.49,2.15,1,.82.09,0-.12,0,.49-.81,0,0,2.17-1.68c-.19-.41-.41-.87-.77-1.61l-1.46.24,1.9-2.83-5.18,1.54v-.29l-1.38.64.06,0c-.21-.88-.58-1.35-1.43-.64l.06-.07L104,198.2l-.5,2.62-1-.59-.12.83c-.85.76-1.57,1.39-2.12,1.87a10.75,10.75,0,0,0-1.68-2.61,2,2,0,0,0-2.1,0c-2.41,2.31-4.72,4.75-7,7.23a33.87,33.87,0,0,0-2.42,3.34l-.53-.41.81-1.52-.2-.25c-1.29.81-2.56,1.65-3.88,2.41a8.09,8.09,0,0,1-1.63.49l0,0,2.94-3.64-.34-.45c-2.8,1.25-4.66,4.74-8.7,4.41.65-1.31,1.1-2.22,1.65-3.31l-2.19-.28,2.18-3.43-3.23.45-.25-.64,1.57-1c-1.19-1.19-.35-2.24.43-3.48A16.19,16.19,0,0,0,77,196.84l-.06,0,.25-.34-.26-.14.07,0L80,192.27l-.19-.3L77,193.16v1.05l-.92.24.08,0v.48l-.06-.08-2.39.55c.5-1.09,1-2.07,1.42-3l-.05,0,.5-.95.94.68.38-1.21,0-.07c1.85,1.18.66-1,1.21-1.23l0,.06L82.13,186l-.25-.5-2.16.7-.08-1.86,0,0,2.53-2.27-.55-.07c.13-1.3.32-2.59.35-3.88a1.23,1.23,0,0,0-.84-.87c-1.76.07-2.27-.41-2-2.17-2.3.41-5.37,3.67-5.91,5.91a7.49,7.49,0,0,1-1.67,2.52A14.42,14.42,0,0,1,69.91,185l-.63-.74,1.77-2.36-.57-.45c-1,1.56-2,3.16-3.12,4.66a5.81,5.81,0,0,1-1.61,1.1l.06,0-.09-.06.8,1.42c-5.16-1.17-7.89,3.81-12.59,4.79l-1.34-2.88c-2.12,0-2.78-1.7-1.52-4.64-2.59-1.05-1-2.63-.44-3.86l-3.77.25a8.45,8.45,0,0,1,.84-1.71c2.51-2.57,4.74-5.64,7.67-7.5,2.76-1.75,4.84-4.09,7.09-6.31a39,39,0,0,0,3.61-4.7l-.18-.28.23.3a4,4,0,0,0-1.43.42c-2,1.62-3.93,3.31-6,5.09v-1.36l-2,.35,1.56-2.3c-2.13-.14-3.22,1.3-4.45,2.54a22.92,22.92,0,0,1-2.26,1.92c-.66.52-1.39.92-2,1.45a4.91,4.91,0,0,0-.69,1l1.47.61c-1,1.24-1.77,2.67-3.59,2.78h0A13.83,13.83,0,0,0,47.88,173a11.72,11.72,0,0,0,.7-1.8l-2.26,1.26h0l-.05-2,0,0c.23-.72.47-1.44.7-2.16.36.24.89.76,1,.66,1.09-.77,2.1-1.67,3.13-2.52l0,0a11.27,11.27,0,0,0,2-1.38c.78-.8,2.25-1.4,1.23-3l1,.72.17-.6-1.16-.07c-1.38,1.06-2.79,2.09-4.13,3.21-1.12.94-2.17,2-3.25,3-5.66,3.51-11.6,6.6-16.22,11.76l-.52-.5,2.67-4.2c-1.35-1.15-2,.63-2.91,1.07a22.53,22.53,0,0,0-3.19,2.58c-2.16,1.68-4.44,3.2-6.51,5-1.4,1.22-2.44,2.9-3.79,4.19a47.63,47.63,0,0,1-4.07,3.16l-.61-.62,4.87-6.46c-2,1.21-3.64,2.2-5.27,3.28s-3.51,1.44-5.39.1l4-6.28-.34-.4-3.13,2.83h0c-.41-1.22.69-2.78-.75-3.77l1-.18-.12-.53-.9.72-1.35.17,0,0c1-1.56,2-3.11,3-4.67.77-1.2,1.57-2.4,2.28-3.64.06-.11-.42-.56-.41-.54,1-1.55,1.93-3.07,3-4.48s2.25-2.73,3.66-4.42c-.66,0-1.18-.18-1.45,0C11.75,164.76,9,167,6.13,169.14c-.39.3-.83.53-1.51,1,.88-2.52,4.06-3.1,3.59-6.47l-5.46,3.21-.37-.45c.83-.9,1.6-1.87,2.49-2.69,2.58-2.33,5.17-4.64,7.82-6.88,2.93-2.48,5.88-4.94,8.93-7.26.75-.57,1.91-.54,2.89-.8l.13-.06-.16,0c.9-1,1.76-2.09,2.71-3.06a17,17,0,0,1,2.6-2.15c1.13-.74,2.63-1.23,3.29-2.29,1.1-1.77,2.75-2.44,4.25-3.5,2.81-2,5.51-4.12,8.26-6.2a10.09,10.09,0,0,0,2.6-2.55l-5,2.08-.23-.32.83-1.32-.3-.5c-4.28,2.33-8.62,4.57-12.85,7s-8.2,5-12.15,7.42l.59,1.5c-1.61.11-2.34-.45-2.58-1.79s.31-1.93,1.57-1.63c.4.09,1,.25,1.2,0,2.54-2.81,6.61-2.87,9.12-5.85.91-1.07,2.69-1.28,4-2,2.4-1.38,4.77-2.85,7.13-4.33,1.68-1.05,3.34-2.18,5-3.27l-.3-.56-3.94,2.44c.18-2.89,3.6-1.92,4-4.63l-11.09,6.23-.54-.52.87-2.32-1.08-1-.72,3.38-2.93,1.13c0-.19,0-.38,0-.37L24.34,131c-.16-1.26-.6-1.23-1.61-.7-3,1.56-6.05,2.92-9.19,4.42l-1-1.52a18.62,18.62,0,0,1-2.76,1.21A4.52,4.52,0,0,1,8,134.17a6.05,6.05,0,0,1,.35-1.79c.4-.79,1.7-1.26.45-2.51l-2.6,1.6c-.35-1.19,1.39-2.73-.45-3.77l0,0-1.55-1.34.56-.56c2.4.3,2.51-2,3.71-3.26a3.29,3.29,0,0,0-4.15,1.29.31.31,0,0,0,.1,0H4.34v.94l-.47-.57-.19.19,1.1,1.43c-.19.19-.38.39-.56.59L3.78,126l0,.07-.37-.57-.45.55,0,0-.43.47.06,0L1.09,124.8c-.31-.35-.61-.71-1.09-1.25l1.87.09L2,124.78l.42-.18-.6-1,.82-.83-.05.06.79.11.06,0-.11,0c-.46-.34,1.19-1.33-.36-1.33l.06,0,2.23-.38.45.27.17-.46-.59.15-.54-4.45,3.28,1L8,117.67l.93,1.11v2.39l.65.4,8.5-9.77c-1.2-1.67-.5-2.37.83-3.61,1.5-1.38,4-2,4.22-4.73a6.68,6.68,0,0,0,2.23-.6,49.11,49.11,0,0,0,4.2-3.3,5.38,5.38,0,0,0,.84-1.3l.81,0c0,.09.06.18.1.28l.3-.24c.05,0,.11-.06.15-.1s0-.08,0-.12-.05.17-.08.26l-.49,0L31,97.87l-.51.43c-1,.61-2.13,1.85-3.05,1.71-1.8-.27-2.28,1.55-3.62,1.88-.29.07-.39,1.07-.57,1.64l-2.28,1.24c0-.66-.31-2.39-.05-2.49,1.67-.62,2.54-2.25,4-3.17,3.17-2,6-4.55,9.06-6.79.35-.25,1.08.08,1.63.14l.09.26a2.76,2.76,0,0,1-.08-.27c1.4.69,2.8,1.48,4.07-.24l-.07.07c4.43-1.65,11.34-6.74,11.33-8.63l-1.76.53,0,.07-.47-.48.07.06c.92-1.31,1.81-2.64,2.78-3.9.17-.22.69-.13,1-.19l.11.24s0-.13,0-.14-.11,0-.16-.06L53,78.53c-2-1-2-1.26-.62-4.71v3.12a18.58,18.58,0,0,0,2.48-2,8.2,8.2,0,0,0,1-1.9c-.88-.17-1.41-.46-1.65-.29a6.35,6.35,0,0,0-1.13,1.4A2.3,2.3,0,0,1,53,71a8.54,8.54,0,0,0,.88-1.47l0,0c2.49-.25,4.48-1.62,6.4-3.16l.47-.6.11-.56h-.18c0,.17.07.35.1.53l-.53.65-.82-1.22L58.28,66.5l0,0-.45-.47.06,0h-.45l0,0a3.64,3.64,0,0,1-1.16.65c-.2,0-.71-.7-.66-.79a2.62,2.62,0,0,1,1-1c1.12-.46,2.29-.81,3.35-1.16l-.89-2.22L61,60.71v0l4.43-2.67v0l.84.43,0,.07c.6-4.15,4.16-3.9,6.76-5.12a10,10,0,0,0,2.83-2.12l-2.15.32c.25-.44.37-.94.59-1,2.16-.59,4.33-1.08,6.49-1.65,2.33-.62,4.63-1.39,7-1.9,1.39-.29,2.86-.13,4.28-.31A7.78,7.78,0,0,0,94,45.81c1.67.46,3.51-.2,5.29-1.39a21.27,21.27,0,0,1,4.48-2.63A9.51,9.51,0,0,0,108,39.55s0-.13,0-.2l0,0,.89-.62-.06,0,.45-.48,0,.07,2.41-1.76-.07,0,.51.16c0-1.91,1.85-1.34,2.73-2.07.5-.41,1.59.1,2.32-.13a8.31,8.31,0,0,0,2-1.41V30.73l.75,1.43,15.15-7.09.35.59L132.09,29l.32.46,5.2-2.2c-.26,1.17-.37,1.7-.46,2.12l4-.43-5.84,5.52.47.69,9-6.53,0-.06,1.23-.18.25.33-2.7,2.85-.39-.32c0,.39,0,.78-.08,1.16s-.1.77-.17,1.25l1.27-.33-.05-.06.6,1.08,0,0a19.06,19.06,0,0,1-6.53,6.29c-.47,1.1-1,2.2-1.59,3.67l2.52-.64-1-3.06c1,.89,2.57,1.18,2.47,3l-.25.23.24,0,0-.32,1.61-.76c.27,1.88-.49,2.74-2.23,2.51l-.05-.06.11.08-1.71.9c3.77,1.21,3.78,1.2,5.77-1.85.07-.11.17-.24.28-.26,2.86-.69,4.18-3.44,6.23-5.21a1.14,1.14,0,0,1,.54-.15c.17,0,.34,0,.79,0l-3.08,3.63.34.37c3.45-1.86,6.35-5.06,10.48-5.25-.1,1.26-.17,2.29-.24,3.31l-.35.67c-.56-1-1.26-1.34-2.19-.49l-.09.77-.59-.05v.18l.55-.18c0-.25.09-.49.14-.73.8-.12,1.28,1.34,2.22.51l.3-.71,2.52-.3c-.73,1.57-.73,1.57,2.47,1.37l.7-1.42-.06-.05h.83v0l1.54-.59.29.27-2.45,2.11-1.47,1.13,1.59,1,0,.06.08-.09.79-.07-1-2.08,3.46,1.27V41.63l1.13.08-.36-.37h0l2.78-1.05-1.18-.62,0,0c1.53-.83,3-1.72,4.6-2.46a4.23,4.23,0,0,1,1.64-.08l0-.08.84.46-.08-.06.44.45,0-.06c1.69,1.14,2.94-.23,4.25-.92,2.52-1.32,5-2.76,7.47-4.13a6.35,6.35,0,0,1,1.52-.17L189,35.86l.13.4c.94-.3,1.87-.61,2.81-.9,1.1-.34,2.2-.69,3.32-1a1.09,1.09,0,0,1,.76.35,2,2,0,0,1-.46,1.13c-1.93,1.47-3.91,2.87-5.86,4.31-.64.47-1.23,1-1.62,1.32,1.45-.12,3-.22,4.56-.41a18.38,18.38,0,0,0,2.16-.53c.64-.16,1.28-.3,1.92-.45l.48.58a8.31,8.31,0,0,1-1.54,2c-1.36.92-2.89,1.55-4.3,2.42-2.47,1.52-4.91,3.11-7.34,4.71-.35.23-.55.69-1,1.26l3.6-1.45,0,0,.9,1.16.43-1.2.61.59-1.41,1.7.52,1.12-.44-.11-.85,2.31,0,0-.65.41.62.72v0l2.37-.08c-.05.6-.11,1.21-.2,2.24l1.36-1.74v2.52l5.94-.34,0,0h8.1l0,.44-5.57,1.71-1.47,0c-.11.12-.23.23-.06.08-.06.19,0,0,0-.14h1.5l-.57,1,0-.06c.44,0,.88-.06,1.32-.11,1.47-.17,3-.47,3.87,1.11a8.61,8.61,0,0,0-2,1.3c-.21.22.2,1.06.24,1.23l4.94.94,0,0,.25.82-2.32.47-3.83.83c1.6.94,2.74.17,3.82-.85l-.59,1.38c2.26.83,4.94-1.41,7.06,1.08l-1.51,1.11,4,1c0,.13,0-.19.11-.51,3.19.74,2.24,3.7,2.64,5.84a13.29,13.29,0,0,0,7.94-1.94c1.6-1,3-.91,4,1.45l-5.22,1.92.24.89c7.62-1.42,15-4.12,22.56-5.76l.16.49L238.87,78l.22-1-7.26,1.72.08.52,1.8-.29c-.9,1.42-1.73,1.28-3.15.8-1.15-.39-2.6.18-3.91.36-1.54.22-1.87,1.09-1.23,2.38l2.29.22.08.57-8.37,3.56.19.62,28-7.26.19.65-3.64,1.64.16.48,5.16-.81-.9,1L250,84.39c-3.8,1-7.16,2.18-10.06,5.19l2.95.93-1.1,2.3,0,.06c-1.5.44-1.9,1.34-1.29,2.92s-.3,3-2,3.52-3.52,1.39-5.41,2.16l.15,1.64-7,2.65.1.59,3,.25c0,.29.07.57.11.86l.3-.11-.45-.71c1.44-.68.9,1,1.41,1.36a14.58,14.58,0,0,1-1.66,1.59c-.42.3-1,.24-1.5.51a11.18,11.18,0,0,0-2.76,2.28c1.12-.31,2.24-.6,3.35-.92s2.5-.73,3.74-1.1l0,0c-1.89,1.24-3.74,2.54-5.68,3.69-2.58,1.53-5.21,3-7.87,4.38a34.74,34.74,0,0,0-4.78,2.52c.54.11,1.15.45,1.61.29,4.68-1.61,9.42-3,13.78-5.6,1.54-.91,3.39-1.24,5.5-2-3.32,4.27-8.14,4.14-12.18,6.23.37.72.66,1.26.94,1.81l-.51.11c-.08.29-.16.58-.23.87l-1.24.62.78-2.9-6.86,3.7-.47.47.58.27-.16-.78c.8.13,1.53.77,2.4-.19.51-.56,1.49-.64,2.27-.94l-.05,0,.12,2.83-.18.06c-.11.08,0,0,.13-.11l1.43-1.19c.36-.35.71-.7,1.06-1.06l.16,0s0,0,0-.07l-.21.15.21-.85.27-.83.45-.13.77.08-.07-.06-.46,1.77.79-.12.2,0h-.26l2.58-.66.24.85L213.89,132c.83.95,1.82.59,3.08-.27a48.71,48.71,0,0,1,6-3.34c.32-.15,1,.44,1.46.68l0,0,1.28,1.36.22-.23-.64-1.85c1,.79,1.69,1.62,2.78.23.23-.29.91-.19,1.39-.27v0c-.37,2-2,2.62-3.5,3.25-.4.36-.81.71-1.22,1.05l-.47,0,.14.23.28-.33-.19,1.43c1.66-.59,1.87-.94,1.4-2.45l3.79,1.14c-.9.66-1.91,1.34-2.83,2.12-.39.33-.57.93-.91,1.33-.72.85-1.48,1.66-2.25,2.46-.49.52-1,1-1.54,1.48h2.45s.33.42.81,1c-1.5,1.05-2.89,2-4.25,3-.22.16-.32.49-.48.74l-.06-.06v.1c1.18.49,2.18.61,3.2-.6.43-.52,1.5-.44,2.28-.63l.22.49-9.29,5.68.17.58,1.85.12L197.8,163.48l-.35,1.43,0,0c-.83-1.31-1.6-.54-2.68.1l1.67,1.12h0l-2.54,1.13.8,1-1.4-.53c-.12-.15-.23-.31-.35-.47l-.24-.09.25.09c.12.15.25.29.38.43l-2.15,3,.06,0h-.82l0-.06-3.4.41-.26-.07h.31l-.36,1.13,0,0c-1.09.89-2.18,1.8-3.29,2.66a8.55,8.55,0,0,1-1.19.65l-.86-.18v.41l.87-.25.23.76h0a4.85,4.85,0,0,0-1.5.66c-.63.58-.72,1.22.37,1.41a.32.32,0,0,0,0,.09l.09-.05,1.81-.72-.05,0c1.47,1,.16,2-.18,2.89-.21.54-1.05.81-1.71,1.28l.68.86-1.44.69c-.26-.55-.54-1.12-.82-1.7a.66.66,0,0,0,.15,0s0-.08,0-.11l-.13.19-1.08,1.82,1.09.62c-.59,1-1.16,1.87-1.73,2.77-1-.69-1-.69,0-1.45a1,1,0,0,0,0-.1v.14l-.5-.47a12.56,12.56,0,0,1-3,1.52c-.44.08-1.06-.88-1.84-1.58l-1.6.55c0-1.93,3.25-2.18,1.82-4.72-2,1.75-3.93,3.45-5.9,5.08a5.48,5.48,0,0,1-1.53.63l.09-.11,0,.15-.06-.12c.95.94,1.79.09,2.68-.35-.19,1.87-1.4,2.41-3.39,1.92l1.71,1.25c-1.17,1.09-1.17,1.09-3.32-.48L161.8,191c-.09.28-.19.57-.29.85l-.3,0,.32-.08c.11-.27.21-.53.31-.79l2.22,1-4.69,2.84-.63-.38,1.13-2.13-.2-.25c-1.22.89-2.44,1.77-3.64,2.67-.18.28-.37.55-.55.82l.48.15v-1c1,1.17,1.86-.39,2.82-.25l.62.42c-.64,1.5-2.68,1.83-2.87,3.77,0,.14-1.05,0-1.31.32a7.43,7.43,0,0,1-4.82,2.4h0a12.76,12.76,0,0,0-5.55,4.95c-1.13.68-2.19,1.32-3.26,1.95l-.36-.39c1.28-2.25,4-3.32,5.13-5.73l-.54-.52c-2.93,2.61-5.83,5.26-8.81,7.81a79.25,79.25,0,0,1-6.52,5.22c-1,.68-2.19.35-2.72-1.07l1.26.5,0-.72-1.26.25-.34,1.12-2.65.89c-.37-1.42-.37-1.42,1.67-3h3.84l1.18-1.06-.86-.72.74-1,.8-.31-.17-.29-.58.66-1-1.93h3l-1,2.09.5.38,2.58-3.05c1.06-.75,3.17-.51,2.38-3a5.76,5.76,0,0,1,.1-2l1.73.89c.29-.5.69-1.15,1.16-1.93l-1.42-1-.34.8,0,0-1.39-.16c-.28.82-.55,1.59-.82,2.37l-.34-.42a7.13,7.13,0,0,0-2.24,1.3c-.87,1.08.32,1.52.9,2.14.23.24.24.7.35,1.06a4.85,4.85,0,0,1-1.21-.44c-1.84-1.29-2.67-1.1-3.94,1q-1.92,1.82-3.86,3.61l0,0-.09,1.12c-.46-.48-.79-1.32-1.52-.16a8.06,8.06,0,0,1-1.92,1.56l.34-2a5,5,0,0,0-1.46.49c-1.39,1.14-2.38,3.1-4.63,2.3l-.12.56.07,0-1.7,1.45c1,.54,1.76,1.22,2.48,1.2a1.14,1.14,0,0,0,.76-1.87l0,.07,1.24-.33-.06-.07.07,1.65-2.77,2.75,0,0-1.43,1a18.53,18.53,0,0,1,1.58,1.33c.07.08-.19.51-.3.78l0,.06-1.26-.5v0l-.93-.31.83,2.36-1.2-1.08,0,.06L113,221.74l.76-1.45.58,1.72,2.38-3.63-1.85-.41h0c.11-.41.21-.81.31-1.23a.54.54,0,0,0,0-.18s-.06-.06-.09-.09l.13.31-1.86.54-.3-.43a8.54,8.54,0,0,1,1.17-1.61c1.54-1.3,1.57-1.43,0-3.05l2.17-3-.43-.53-2.7,2-.42-.49,7.76-8.35c-.64-.08-1.11-.3-1.4-.15a50.16,50.16,0,0,0-5.07,3.06,41.94,41.94,0,0,0-3.72,3.36ZM9.68,184.57l-.09.85-.73,0V186l.28-.08-.28-.58.76,0,.06-.82h0Zm2.1-60.45-.11.09.06-.15.1-.11ZM9.76,177l-.1-.08.1.07a1.19,1.19,0,0,0-.09-.15.75.75,0,0,0-.13-.11Zm158.42,4.45-.15,0,.13-.23a.88.88,0,0,1,.05.15l0-.09ZM70,97.59l.31,0a1.82,1.82,0,0,0-.33,0l-.2.93-.63-.2,0,.23.68,0Zm149.24,36,.1.11-.12,0,.08.08Zm-99.15,25.13.21-.63.13,0-.09,0a5.89,5.89,0,0,1-.21.59ZM96,49.25l-.2.22c.06-.09.11-.18.16-.27l.28-.11L96.08,49Zm83.62,7.2-.1-.5.62-.07.3-.1-.32.12c-.17.21-.35.42-.53.62l.1.07Zm6.18-2.51-.08.05s0-.11,0-.1l.31.08v-.23Zm36.41,78.68h-.16c-.3.16-.1.06.1-.06l.18-.43-.15,0ZM212.1,134.3l.08-.06-.14,0,.12-1L214,134c-.33-1.71-1.07-1.16-1.8-.67C212.17,133.64,212.13,134,212.1,134.3ZM35,94.75l-.23-.27.29.22.22.2Zm172.37,6.51c-.17,0-.34-.08-.05,0-.26.1-.08,0,.09,0l0-.07ZM104.15,194.19h.8l.93-.59-.46-.54-.45,1.11h-.84l-.15-.07.22-.07Zm22.15-41.32.52,0-.07-.18-.49.21.06.07ZM17.62,156l-.09.06.14,0,0,1.22a5.83,5.83,0,0,0-1,.05c-2.15.56-3.22,3.46-5.85,3,0,0-.12.2-.18.31l-.41.19.23.2.17-.41c.29.2.85.49.82.59a2.78,2.78,0,0,1-.72,1.43,8.83,8.83,0,0,1-2.25.77c.61.38,1.06.82,1.2.73a35.26,35.26,0,0,0,4.2-3c1.37-1.18,2.55-2.6,3.82-3.91C17.66,156.86,17.64,156.44,17.62,156Zm89.43,35.58.06-1,1.58-.17,0-.37-1.5.54-.06,1-.63.31-.22.58.28.05c0-.21-.07-.41-.09-.61Zm72.23-90.29c-.28.23-.57.46-.87.68l-.21,0,.17-.05.88-.58a1.83,1.83,0,0,1,.33,0,.53.53,0,0,1,0,.15ZM161.13,45.24l-.43.94.42.12V45.21l.4-.56.56.3,1.58.08,0-.52-1.57.46.06-.62-.6.34Zm-18,154.33.8-.25-.29-.47c-.15.26-.31.51-.45.77l-.06.27Zm-32.3-156.4-.7.58.26.25.45-.82.27-.13-.17-.18Zm94.7,47.77h1.06l-.07-.33-1,.4.07.07ZM137.68,35.26l.79.42.1-.32-.88-.08v.89l-2,1.17.54.53,1.41-1.72ZM102.15,197.5l-.05.12.09-.16.07.5.59-.69-.16-.17Zm-2,3.56.06-.07-.13,0-.29-1-.32.17Zm75.77-17.73,0-.3H176l-.17.26,1.11.3,0-.53ZM202,92.78l1.08-.53-.51-.6c-.18.39-.35.79-.54,1.17l-1-.07,0,.42ZM22.7,162.11l-.88.87.44.26.39-1.07.12,0Zm192-10.5-1,.53.35.41.59-.91.13-.12v.23ZM175.78,78l-1.05,1,.36.3.67-1.25.46-.06v.19ZM6.32,119.8l.47.1-.11-.3-.39.28V118l-.31.06C6.09,118.66,6.2,119.24,6.32,119.8Zm119.75,43.26-1.49.86.37.47L126,163l.68,0-.1-.3ZM104.74,43.78l-1.41,1.08.47.41.86-1.46.12.07-.1,0Zm70.45.57-1.52.44.31.58,1.17-1.06.51-.08-.09-.16Zm54.38,59,0-.34,0,.31,1.53-.92-.43-.5ZM114.84,201.57l.41-1.44-1.16-.1c.31.65.53,1.1.74,1.55l-.44-.11ZM224,130.89l.26.07-.29,0-.36-1.12-.32.13L223,132ZM70.27,100.05l2.44-1c.22,0,.44-.1.1,0l-.06.06-2.5,1,0,.08Zm33.57,110v-1.75h-.2l.19,1.74-1.44,1,.06.37,1.82-.58Zm72.75-29.54.1-.05-.14,0,2.82-.29-1.32-1.22c-1.15-1.94-2.38.3-3.56-.08v3l2.06-.41-1.24-1.57c1-.35,1.86-.67,2.74-1ZM16.18,131.1a1.8,1.8,0,0,0-2.7,1.08l2.66-1.12-.13-.29Zm209.52-27h2.91l-.14-1q-1.38.5-2.73,1l.1.28ZM57,176.23l2.76-1.81-.54-.66c-.72.83-1.45,1.67-2.16,2.51l0,.09ZM58.47,71.87l.17,0h.12l-.35,0,.61-1c1.88.48,2.66-1.08,3.67-2.33a4.57,4.57,0,0,0-2.5.51,14,14,0,0,0-1.93,1.46l-1.73,2.31.45.28ZM118.4,37.08l-3.29,2.21.55.73,2.82-2.84,1-.51-.18-.3Zm98.39,90.22-2,.39.06,0-1.23,1,.46.62,2.72-2.05,1.59-.77-.26-.48ZM181.3,114.37c1.4.22,2.89,1,3.91-1l-3.87,1-2.34.45.31.86Zm-73.93,82.18-1.35-.2.28.78,1.12-.64.48.64c.56-1.12,1.12-2.23,1.67-3.35l-.88-.36c-.2.72-.34,1.46-.6,2.15A4.19,4.19,0,0,1,107.37,196.55Zm16.67,15,.07-.07H124c.29,0,.7.16.87,0,1.11-.93,2.46-1.75,3.16-3s2.54-1.48,2-3.36l.61.06v-.12l-.61.06c-.39.4-.79.79-1.17,1.2C127.28,208.05,125.65,209.78,124,211.52ZM205.48,76.78c.7-.2,1.39-.44,2.1-.6,1.35-.3,2.74-.51,3.48-2.08-2.74-.65-4.86.44-5.57,2.71-2.1-1.47-3.4.5-4.94,1.41ZM58.51,76l10-6.55-.42-.73c-2.37,1.53-4.79,3-7.08,4.62a15.73,15.73,0,0,0-2.45,2.73c-.05,0-.11.07-.17.06a.21.21,0,0,1-.15-.1c0-.32-.06-.64-.13-1.52L57,76.81l-.26-.44-2.81,1.48.27.63C55.58,77.52,57.67,78.2,58.51,76ZM20,160.94l3-2.76,7.41-6.86-.31-.57c-.44.09-1,0-1.29.29a45.53,45.53,0,0,0-4.22,3.25c-1.23,1.13-2.18,2.64-3.48,3.67a2.5,2.5,0,0,0-1.1,3c-.12-.09-.24-.18,0,0C19.68,160.87,19.82,160.9,20,160.94ZM37.07,142.6l-.32-.53a4.6,4.6,0,0,0-1.7.48,48.68,48.68,0,0,0-5.47,4.67c-1.07,1.13-1.89,1.53-3.29.2l.28,1.74-1.4.5.13.62a7.75,7.75,0,0,0,2.07-.51,47.9,47.9,0,0,0,5.19-3.24C34.15,145.35,35.58,143.92,37.07,142.6Zm114.76,51.23.69.91,12.75-10.3-.49-.68ZM33.54,174.22l.41.6c1.54-.56,3.33-.69,3.87-2.94.07-.32.67-.48,1-.75,2.14-1.69,4.36-3.31,5.9-6.36ZM215.35,81.77l.21.63L221.75,80l-.18-.56C219.16,79.21,217.57,81.45,215.35,81.77Zm-13.43-9.09,4.46-1.15a11.59,11.59,0,0,0-4.27-.08C202,71.46,202,72.28,201.92,72.68Zm-30.28,7.76-2.21-.35-.33,2.12Zm8.47,31.3.17.82,2.79-.89-.18-.66ZM65.33,61.92l.51.5L67.72,61l-.64-.72ZM29,126.57l.45.5-2.79,1.13.48.5C28.39,128.59,28.39,128.59,29,126.57ZM62.89,61.74v2l1.85-1.31ZM92.2,49.22l-.36-.74-1.72,1.07.27.54ZM22.15,153.66l.48.49L24,152.53l-.4-.4Zm97.31-89.37-.16-.55-2.62.77.2.68Zm91.17,66.52.62.55L212.3,130l-.53-.47ZM30.71,126l-.71.14.27,1.63.61-.1Zm-23.4,3.39.58.42.75-1.35-.4-.28Zm141.26,70.71-.28-.32-1.6,1.5.51.56Zm21-147.27.21.46,1.91-1-.21-.46Zm-157,75.36-.4-.4L11,129.09l.46.48ZM237.2,90.12l-.64.31.61,1.44.67-.33ZM25.55,159.33l.55.55c.25-.45.51-.89.74-1.35,0,0-.15-.15-.31-.31Zm172-94.19-.16-.56-1.42.48.2.59Zm-74.58,2-.88-.87a8,8,0,0,0-.3,1.26c0,.13.41.43.44.41A9.35,9.35,0,0,0,123,67.11Zm71.5,9.32,0-.62-2,.33,0,.29ZM24.42,151.22l.13.61c.42-.21.83-.42,1.23-.65,0,0,0-.21-.07-.35ZM102.8,166.4l-.12-.06-1.07,1.43h.06Zm-3.19,31.74v.2l1.56.47.09-.47Zm-51-91,.44.48.72-.89c-.14-.11-.36-.34-.41-.3A8.31,8.31,0,0,0,48.65,107.1ZM213,121.23l-.25-.39-1.29.83.35.54Zm-163.9,7.3.24.33,1.26-1.12a2,2,0,0,0-1.42.43C49.15,128.22,49.16,128.4,49.14,128.53Zm176.31-21.85-.15-.48-1.16.48.11.34ZM18.5,160.41l-.38.08.36,1.77.42-.11ZM174.06,184l.39.27c.18-.3.36-.61.55-.91l-.37-.24Zm-66.32-21,.2.31.92-.75-.16-.25Zm-90-.41.07-.42c-.15-.09-.33-.29-.43-.25a2.36,2.36,0,0,0-.55.46ZM33.42,95.93l.14.25,1-.64-.13-.24Zm144.72,81.7v.21h1.14l0-.21Zm60.73-93c-.19-.16-.3-.33-.43-.34s-.32.12-.49.19a2,2,0,0,0,.43.48C238.45,85,238.65,84.75,238.87,84.59ZM194.2,166.13l.36-.22-.63-.35ZM15.45,118.05l.35.28.44-.92-.5-.19ZM227.81,97.78l.24.32.69-.46a2.6,2.6,0,0,0-.35-.39A4.79,4.79,0,0,0,227.81,97.78Zm-6.75,15.88.07.46.79-.33-.09-.3Zm7.41-6.13a3.27,3.27,0,0,0-.86-.39c-.12,0-.27.18-.41.28a2.42,2.42,0,0,0,.44.55C227.71,108,227.92,107.83,228.47,107.53Zm-92-57.94c-.23-.17-.43-.36-.47-.33a1.1,1.1,0,0,0-.37.48c0,.07.24.35.26.34A4.88,4.88,0,0,0,136.47,49.59Zm22.1-2.67,0,.49c.23-.07.47-.13.7-.22a.54.54,0,0,0,0-.25C159,46.92,158.8,46.92,158.57,46.92Zm-22.13-1.54a6.42,6.42,0,0,0,.81.45s.19-.22.16-.27a.67.67,0,0,0-.33-.37C137,45.15,136.78,45.27,136.44,45.38Zm-30.59-2.51a2.33,2.33,0,0,0-.11.51s.2.09.3.14l.21-.51ZM85.46,58.09l.13.36.68-.4Zm122.37,45.83v.41a3.39,3.39,0,0,0,.64-.06,1.86,1.86,0,0,0,0-.42Zm-152,0,.43-.48c-.11-.1-.2-.25-.33-.29s-.26.12-.27.2A2.55,2.55,0,0,0,55.85,104Zm176.51-2a2.44,2.44,0,0,0-.44-.38c-.07,0-.19.08-.29.13.06.15.1.36.21.44S232.11,102.08,232.36,102Zm-18.69-2.47a2,2,0,0,0-.37-.3c-.05,0-.16.12-.24.18a2.17,2.17,0,0,0,.31.36S213.52,99.63,213.67,99.51Zm-33.43,76.38a2.3,2.3,0,0,0-.33.49c0,.07.13.29.15.28s.35-.11.41-.23S180.36,176.15,180.24,175.89Zm-62.43,31.84c-.21-.08-.34-.18-.46-.16s-.23.23-.21.27a1.56,1.56,0,0,0,.32.36ZM193.84,96l-.18-.42a2.5,2.5,0,0,0-.4.31s.11.3.14.3A2.09,2.09,0,0,0,193.84,96Zm41.88-3.26-.11-.4c-.15.08-.35.12-.42.24s.08.29.12.44ZM155.38,42.22l-.24-.26-.55.53.17.22Zm-145,90.13-.4-.24-.34.94.28.13ZM191.8,61.91a5.1,5.1,0,0,0,.91.24,2.17,2.17,0,0,0,.22-.46ZM40.53,139.57l-.22-.4-.74.32.19.48Zm70.38,22.19c-.23-.1-.39-.24-.49-.21s-.22.24-.33.36c.13.09.27.26.39.24S110.71,162,110.91,161.76Zm86.75-92.34c-.06-.11-.09-.28-.17-.31s-.22,0-.34.09a3.14,3.14,0,0,0,.24.39A2.8,2.8,0,0,0,197.66,69.42Zm-100.41-21,.16.27.69-.44L98,48Zm4.49,146.3,0,.37.87.1,0-.33ZM151.88,45.24l-.17-.38-.66.48.12.23Zm35.27,68c-.06-.08-.13-.24-.16-.23a.91.91,0,0,0-.27.18l.21.31A2.75,2.75,0,0,0,187.15,113.21Zm36.84-.34-.24.19a1.61,1.61,0,0,0,.29.09s.09-.06.13-.1ZM62.31,152.45l-.3-.22-.28.5.23.19ZM187.61,110l-.38-.32c-.06.14-.19.32-.15.4s.25.16.38.24ZM62,63.65c-.06-.09-.09-.23-.17-.26s-.21,0-.32.07a2.27,2.27,0,0,0,.26.35S61.87,63.71,62,63.65ZM223.33,106c-.22-.12-.37-.26-.45-.22s-.24.23-.36.36c.12.09.25.25.36.23S223.12,106.14,223.33,106Zm-48-48.46a.77.77,0,0,0,0-.12l-.3.08.05.15Zm8.13-1.33.36.25.19-.34ZM8,118.93l-.32-.31c-.07.09-.2.21-.18.27a1.89,1.89,0,0,0,.27.38Zm208.66,16.6a2,2,0,0,0-.21-.25,2.17,2.17,0,0,0-.37.31.76.76,0,0,0,.15.23A3.61,3.61,0,0,0,216.69,135.53Zm-.29,15.11-.05-.33c-.1,0-.28.07-.28.11a1.56,1.56,0,0,0,.08.43ZM53.91,71.8l0-.26s-.1.07-.1.1a1.15,1.15,0,0,0,0,.26ZM38,162.05l-.2-.17-.37.53.16.13Zm47.5,44.78c-.1.07-.24.11-.28.2s.07.19.11.29l.37-.24ZM173.19,79.2l-.26.25.29.29c.06-.1.16-.2.16-.31S173.26,79.28,173.19,79.2Zm6.95,99.61a3.16,3.16,0,0,0-.31.47,1,1,0,0,0,.35.3s.22-.17.21-.23A2.82,2.82,0,0,0,180.14,178.81Zm44.51-73.74c-.09-.13-.18-.31-.19-.3a4,4,0,0,0-.45.26l.24.39Zm-43.59-4.54c.07.09.12.23.2.25s.2,0,.31-.09a1.1,1.1,0,0,0-.25-.31S181.16,100.47,181.06,100.53Zm-156,59.91c0-.06-.07-.18-.08-.18l-.31.13a1.48,1.48,0,0,0,.08.17A2.85,2.85,0,0,0,25.07,160.44Zm-3.78-5.9-.14-.27s-.13.08-.13.1a2.44,2.44,0,0,0,.14.28ZM210.8,154l-.05.14.2,0a.78.78,0,0,0,0-.16S210.85,154,210.8,154ZM105,197.4l-.11-.32s-.12.08-.11.12a1.87,1.87,0,0,0,.08.32Zm49.42-.8s.07.13.1.12a1.9,1.9,0,0,0,.28-.1s-.08-.12-.11-.12A1.48,1.48,0,0,0,154.44,196.6Zm-50.23-1.79-.17.25c.09.05.19.14.28.12s.13-.14.19-.21Zm.3-28.75a2.3,2.3,0,0,0-.32-.15s-.08.08-.12.13a2,2,0,0,0,.3.14S104.46,166.11,104.51,166.06Zm-83.79-2c0,.05,0,.12,0,.14a.25.25,0,0,0,.15,0l0-.21ZM197.28,79.2a1.23,1.23,0,0,0-.25-.14s-.12.09-.12.1.11.15.16.22ZM93.92,78.92l-.18.26c.1,0,.2.14.3.13s.13-.15.2-.23Zm119.27-1.4-.14-.06,0,.23s.11,0,.15,0S213.18,77.57,213.19,77.52ZM77.87,65.92c-.05-.09-.08-.24-.14-.26s-.22,0-.33.08l.16.36Zm-8-6.45a1.56,1.56,0,0,0-.09.34s.07.08.11.12.16-.15.16-.23S69.92,59.55,69.85,59.47Zm145.84,52.67a1.2,1.2,0,0,0,.24.15s.11-.06.11-.1a.18.18,0,0,0-.08-.14C215.87,112.07,215.78,112.11,215.69,112.14Zm10.55-4.23-.28.15c.09.09.17.23.28.26s.17-.12.26-.2ZM219.4,84.43c-.09-.06-.17-.18-.25-.18s-.2.1-.29.15c.08.07.17.18.26.18S219.3,84.49,219.4,84.43ZM243,83.2s-.06-.15-.08-.15l-.3.11s.07.14.1.13A1.31,1.31,0,0,0,243,83.2ZM181.77,41.08,182,41c0-.05-.09-.13-.11-.12s-.18.09-.27.13Zm33.57,75-.16,0,0,.22a.47.47,0,0,0,.17,0S215.34,116.15,215.34,116.1Zm-4.4,6.21c-.06-.09-.11-.24-.17-.25a.94.94,0,0,0-.33.14c.06.08.11.23.18.24A.94.94,0,0,0,210.94,122.31ZM25.42,129.66l.31-.14c-.09-.1-.18-.25-.3-.29s-.18.13-.27.2Zm22.79-14.77-.12.1.22.11s0-.1,0-.13S48.26,114.92,48.21,114.89Zm164.91,38,.08-.13h-.13ZM106.83,42.44l-.13.12s.07.12.11.12.08-.06.13-.1Zm106.65,83.09.06-.09-.09,0ZM184.69,55.44s-.07-.12-.11-.12-.08.06-.12.1.07.11.1.12S184.65,55.47,184.69,55.44Zm-56.91,97.1s.11-.07.11-.11,0-.09-.09-.13-.11.07-.11.11S127.75,152.5,127.78,152.54Zm7.54-106.35.11.07v-.12Zm42.74,5.11-.07.12h.12ZM22,156.46s-.07-.12-.11-.12-.09.07-.13.11.08.11.12.12S22,156.5,22,156.46ZM122.36,34.09l.11.08,0-.12Zm95,100.54-.07.12.11,0ZM65.8,130.31l-.1-.12s-.1.07-.11.11.06.08.1.12ZM105,207.9s-.07-.12-.11-.12-.08.07-.13.11.08.12.12.12S105,207.94,105,207.9Zm2.29,0s-.06-.11-.1-.11-.08.06-.12.09.06.12.1.12S107.28,208,107.32,207.91Zm-2,1.94-.07.11.11,0Zm8.88-174.11-.11-.14s-.11.08-.11.12.06.09.09.14Zm90.34,55.91c0-.05-.09-.12-.12-.12a1.2,1.2,0,0,0-.23.11s.08.12.11.11A1,1,0,0,0,204.55,91.65Zm-21.92,87,.08-.14h-.13ZM36.48,94l-.12-.14-.13.13.19.14Zm35.71,86.47-.07.12.11,0Zm33.57-15.61s-.07-.1-.11-.1-.08.07-.11.11l.11.12Zm106.29-62-.11-.06V103a.45.45,0,0,0,.12-.06A.4.4,0,0,0,212.05,102.83Zm10.61,4.63.07-.13h-.13Zm-.76.37.07-.12h-.12ZM62.64,110.08l-.06.09.1,0ZM214.81,113s-.08-.13-.12-.13-.09.07-.14.11.08.12.12.13S214.76,113,214.81,113Zm1.83,2.75-.1-.12s-.09.08-.09.11.05.08.09.12ZM77.25,61.86s-.09-.13-.13-.13-.09.08-.13.12.08.12.12.13S77.2,61.9,77.25,61.86Zm-15.75.5.07-.12h-.12Zm7.27-3.84-.13.11s.07.12.11.12.08-.07.12-.1Zm114,.46-.13-.07v.27a.27.27,0,0,0,.13-.07S182.73,59,182.74,59Zm-1.11.45s-.1-.13-.14-.13a.13.13,0,0,0,0,.26S181.58,59.48,181.63,59.43ZM52.46,77.19l-.09-.12s-.1.06-.11.1.06.08.09.12Zm118.47,2s-.06-.11-.1-.12-.07.06-.11.09.06.11.09.12S170.89,79.27,170.93,79.24Zm6,41.64-.13.13s.08.13.12.13.09-.08.14-.12ZM69.51,68.4l.06-.1h-.11ZM55.1,70.35s-.07-.11-.11-.11-.07.06-.11.09.07.11.1.11S55.06,70.38,55.1,70.35ZM197.3,74s-.07-.14-.12-.15-.09.07-.14.11.07.14.11.15S197.25,74,197.3,74Z"/><path class="cls-2" d="M172.14,39.12c.83-.45,1.64-.95,2.46-1.44H142c-1,.82-2,1.61-3,2.33h32.33A2,2,0,0,1,172.14,39.12Z"/><path class="cls-2" d="M41.74,87.55V40h66a3.93,3.93,0,0,1,1.06-1.09c.29-.2.58-.39.88-.57h0l.84-.67H39.42v51A5,5,0,0,1,41.74,87.55Z"/><path class="cls-2" d="M41.74,91.46V90c-.78.79-1.54,1.6-2.32,2.4h0A12.09,12.09,0,0,0,41.74,91.46Z"/><path class="cls-2" d="M40.7,135.47a3.49,3.49,0,0,1,.72-.62l.32-.29v-10a8.66,8.66,0,0,1-.91.47l-.19.08c-.4.24-.81.46-1.22.7v10.52A2.69,2.69,0,0,1,40.7,135.47Z"/><path class="cls-2" d="M193.72,37.68A16.21,16.21,0,0,1,189.64,40h16.74V204.64H41.74V167.16l-.39.34a2.66,2.66,0,0,1-.47.3l-.42.51c-.13.17-.27.34-.42.5a1.79,1.79,0,0,1-.62.4V207H208.7V37.68Z"/></svg>