<svg id="Layer_1" data-name="Layer 1" xmlns="http://www.w3.org/2000/svg" viewBox="0 0 250 250"><defs><style>.cls-1{fill:#e1e2e1;}</style></defs><title>image masking shape</title><path class="cls-1" d="M117.26,77.71H191.8a18.36,18.36,0,0,1,18.36,18.36V238.74a0,0,0,0,1,0,0h-92.9a0,0,0,0,1,0,0v-161a0,0,0,0,1,0,0Z" transform="translate(159.83 -69.42) rotate(45)"/><path class="cls-1" d="M130.46,11.11,181.34,62l-54.51,54.51L61.14,50.82l39.7-39.71A20.94,20.94,0,0,1,130.46,11.11Z"/><path class="cls-1" d="M56.3,55.65,122,121.35,67.48,175.86,16.6,125a20.93,20.93,0,0,1,0-29.61Z"/></svg>