<svg id="Layer_1" data-name="Layer 1" xmlns="http://www.w3.org/2000/svg" viewBox="0 0 250 250"><defs><style>.cls-1{fill:#e1e2e1;}</style></defs><title>image masking shape</title><path class="cls-1" d="M114.35,196.52a93.91,93.91,0,0,0-10.3,1.93c-7.2,1.82-14.22,4.3-21.43,6.06-10.79,2.62-21.86,4.64-33,4.72-19.7.13-37.94-7.59-44.27-27.59-.6-1.89-1.9-3.67-2.56-5.6A46.94,46.94,0,0,1,1,168.94a81.83,81.83,0,0,1-.92-17.69,127.73,127.73,0,0,1,2.77-20.88A146.54,146.54,0,0,1,9.61,108a139.18,139.18,0,0,1,11-22.12A119.75,119.75,0,0,1,36,65.73,103.3,103.3,0,0,1,56.18,49.28a97.78,97.78,0,0,1,25.18-11,55.68,55.68,0,0,1,21.92-2,64.44,64.44,0,0,1,6.91,1.22,148.07,148.07,0,0,1,21.11,6.94c7.5,3,15,6.13,22.24,9.72,11.73,5.81,24.59,6,37.38,7.62,14.5,1.81,30.94,2.65,42.27,13.34,8.27,7.8,14.45,17.87,16.26,29.2,2.39,15-3.27,29.8-11.65,42.07C229.15,159,216.33,169,202.89,176.13a155.26,155.26,0,0,1-35.6,13.09,250.31,250.31,0,0,1-32.45,5.22C128.05,195.18,121.15,195.59,114.35,196.52Z"/><ellipse class="cls-1" cx="157.72" cy="33.73" rx="13.89" ry="15.19" transform="translate(31.96 134.71) rotate(-50.84)"/><ellipse class="cls-1" cx="115.08" cy="216.27" rx="13.89" ry="15.19" transform="translate(-125.28 168.91) rotate(-50.84)"/></svg>