<svg id="Layer_1" data-name="Layer 1" xmlns="http://www.w3.org/2000/svg" viewBox="0 0 250 250"><defs><style>.cls-1{fill:#e1e2e1;}</style></defs><title>image masking shape</title><path class="cls-1" d="M182.35,194.69,131.52,248a6.43,6.43,0,0,1-9.1.21L69.1,197.4a6.44,6.44,0,0,1-.22-9.11l43.24-45.37,4.45,4.25a6.42,6.42,0,0,0,9.1-.22l7.59-7.95,48.87,46.58A6.45,6.45,0,0,1,182.35,194.69Z"/><path class="cls-1" d="M98,129.48l8.08,7.71L64.42,180.9a6.44,6.44,0,0,1-9.11.22L2,130.29a6.45,6.45,0,0,1-.22-9.09L52.6,67.87a6.45,6.45,0,0,1,9.11-.22L107,110.77l-9.15,9.61A6.43,6.43,0,0,0,98,129.48Z"/><path class="cls-1" d="M248.22,128.81l-50.83,53.33a6.45,6.45,0,0,1-9.1.21L137.8,134.22l5.56-5.82a6.43,6.43,0,0,0-.21-9.1l-2.84-2.71L185.58,69.1a6.43,6.43,0,0,1,9.1-.22L248,119.7A6.44,6.44,0,0,1,248.22,128.81Z"/><path class="cls-1" d="M181.12,61.71l-46.84,49.13-9.69-9.24a6.45,6.45,0,0,0-9.11.22l-4,4.19L67.86,64.42a6.45,6.45,0,0,1-.21-9.1L118.47,2a6.44,6.44,0,0,1,9.11-.22l53.33,50.83A6.44,6.44,0,0,1,181.12,61.71Z"/></svg>